<?xml version="1.0" encoding="UTF-8" standalone="no"?>
<svg
   version="1.0"
   width="67.183mm"
   height="64.287399mm"
   id="svg10"
   sodipodi:docname="353-27.wmf"
   xmlns:inkscape="http://www.inkscape.org/namespaces/inkscape"
   xmlns:sodipodi="http://sodipodi.sourceforge.net/DTD/sodipodi-0.dtd"
   xmlns="http://www.w3.org/2000/svg"
   xmlns:svg="http://www.w3.org/2000/svg">
  <sodipodi:namedview
     id="namedview10"
     pagecolor="#ffffff"
     bordercolor="#000000"
     borderopacity="0.25"
     inkscape:showpageshadow="2"
     inkscape:pageopacity="0.0"
     inkscape:pagecheckerboard="0"
     inkscape:deskcolor="#d1d1d1"
     inkscape:document-units="mm" />
  <defs
     id="defs1">
    <pattern
       id="WMFhbasepattern"
       patternUnits="userSpaceOnUse"
       width="6"
       height="6"
       x="0"
       y="0" />
  </defs>
  <path
     style="fill:#000000;fill-rule:evenodd;fill-opacity:1;stroke:none;"
     d="  M 180.288,1.632   L 180.288,2.304   L 179.904,2.784   L 180.096,4.032   L 180.384,5.088   L 181.536,6.24   L 182.304,7.488   L 182.976,8.16   L 183.744,8.736   L 184.512,9.12   L 185.472,9.216   L 185.76,10.08   L 185.76,10.944   L 185.376,11.808   L 185.376,12.864   L 185.76,13.44   L 186.432,14.016   L 187.008,14.208   L 187.488,14.208   L 188.16,13.344   L 188.448,14.304   L 188.544,15.072   L 187.968,15.456   L 187.584,16.032   L 187.68,16.8   L 187.968,17.568   L 188.256,18.24   L 188.256,19.104   L 187.872,19.2   L 187.488,19.488   L 187.296,20.256   L 187.296,21.12   L 187.104,21.888   L 186.528,22.464   L 185.76,23.808   L 184.416,24.48   L 183.264,24.384   L 182.304,24.96   L 182.112,26.304   L 181.728,27.552   L 181.152,28.608   L 180.288,29.472   L 179.232,29.28   L 178.464,29.856   L 177.792,30.432   L 176.832,30.432   L 176.448,30.72   L 176.256,31.104   L 176.448,31.968   L 176.832,32.544   L 176.16,33.408   L 175.488,34.176   L 174.912,34.944   L 174.528,35.808   L 174.144,35.808   L 174.048,35.52   L 173.856,34.944   L 173.376,34.56   L 172.512,34.752   L 171.648,34.848   L 170.784,35.04   L 170.016,35.52   L 169.728,36.576   L 170.304,37.632   L 170.016,38.592   L 169.92,39.456   L 168.672,39.648   L 167.424,39.36   L 166.848,38.496   L 165.696,38.208   L 164.64,39.072   L 163.296,39.072   L 163.008,39.168   L 162.624,39.456   L 163.2,40.992   L 164.448,41.76   L 164.64,41.952   L 164.448,42.336   L 163.776,42.72   L 163.2,43.392   L 162.048,44.736   L 160.512,45.6   L 159.936,45.888   L 159.648,46.272   L 159.456,47.232   L 158.976,47.808   L 157.632,48.384   L 156.864,49.632   L 156.288,50.976   L 155.328,52.128   L 154.752,53.472   L 153.984,54.72   L 153.792,55.872   L 153.504,56.832   L 153.504,57.888   L 153.312,58.752   L 153.12,59.616   L 153.216,60.48   L 153.504,60.672   L 152.928,61.152   L 152.928,61.728   L 153.984,62.208   L 155.232,62.016   L 156,61.728   L 156.864,61.728   L 157.728,61.536   L 158.304,60.96   L 158.976,61.056   L 159.84,61.056   L 160.608,61.056   L 161.376,60.864   L 163.008,60.96   L 163.968,59.904   L 164.832,59.424   L 165.792,59.616   L 166.656,59.712   L 167.328,58.944   L 168.192,58.176   L 168.576,57.216   L 167.328,56.544   L 166.176,55.68   L 165.6,55.68   L 165.12,55.776   L 165.312,54.816   L 165.984,54.144   L 167.52,54.432   L 168.672,53.76   L 168.864,53.28   L 169.344,53.184   L 169.824,54.24   L 170.688,55.008   L 172.032,54.336   L 173.088,53.376   L 173.184,52.224   L 173.664,51.168   L 174.144,50.208   L 174.528,49.056   L 174.912,49.152   L 175.2,49.536   L 174.72,50.976   L 174.72,52.416   L 175.104,53.952   L 175.968,55.2   L 177.216,55.488   L 178.368,54.72   L 179.52,53.856   L 180.672,53.184   L 182.016,52.704   L 182.784,51.648   L 182.976,50.592   L 184.512,48.96   L 184.224,50.112   L 183.84,51.36   L 183.552,52.128   L 183.648,52.8   L 183.84,53.184   L 183.456,53.568   L 183.072,54.048   L 183.264,55.008   L 183.84,55.776   L 184.992,55.872   L 186.048,56.064   L 187.296,55.68   L 187.296,55.872   L 187.488,56.064   L 187.68,55.584   L 187.968,55.488   L 189.312,56.064   L 190.56,56.256   L 192,54.144   L 192.768,54.432   L 193.44,54.912   L 194.208,55.392   L 195.168,55.488   L 196.128,55.2   L 197.28,55.392   L 197.664,56.448   L 198.528,56.928   L 199.2,56.736   L 199.488,56.256   L 199.488,55.968   L 199.776,55.68   L 200.352,55.68   L 200.736,55.2   L 200.448,54.432   L 199.872,53.856   L 198.432,53.664   L 198.144,52.416   L 199.008,51.744   L 200.064,51.36   L 200.544,51.36   L 200.736,51.744   L 200.352,51.84   L 200.064,52.032   L 199.872,52.512   L 199.872,52.8   L 200.832,53.184   L 201.024,54.528   L 201.792,55.68   L 202.944,55.872   L 203.616,56.544   L 204.864,56.736   L 206.304,56.256   L 206.688,56.832   L 207.36,56.928   L 207.648,56.64   L 208.032,56.448   L 207.84,57.312   L 208.224,58.176   L 209.088,58.464   L 209.664,59.232   L 210.144,59.04   L 210.432,58.56   L 210.336,57.6   L 211.008,56.928   L 211.488,57.504   L 212.16,57.792   L 212.544,57.024   L 212.736,56.16   L 213.024,55.584   L 213.888,55.872   L 215.136,56.544   L 215.616,57.6   L 215.328,58.176   L 214.368,57.696   L 213.408,57.888   L 213.024,58.176   L 212.832,58.56   L 213.696,59.136   L 214.368,59.808   L 215.04,60.48   L 215.904,61.056   L 216.192,61.344   L 216.576,61.344   L 217.248,60.48   L 218.208,59.904   L 218.496,59.52   L 218.976,59.52   L 219.744,61.056   L 220.8,62.304   L 221.664,61.92   L 222.432,61.632   L 222.336,62.88   L 223.104,64.032   L 223.872,63.744   L 224.544,63.264   L 224.448,62.4   L 225.504,63.84   L 226.464,65.184   L 226.944,65.664   L 227.232,65.856   L 226.752,67.104   L 226.464,68.256   L 225.984,67.968   L 226.08,67.392   L 226.272,66.528   L 226.08,65.664   L 225.216,65.376   L 224.352,65.472   L 223.68,66.24   L 223.68,67.2   L 224.256,67.968   L 224.832,68.64   L 225.216,69.408   L 225.216,70.464   L 224.928,70.944   L 224.352,71.232   L 223.2,70.176   L 221.952,69.888   L 220.512,71.136   L 219.264,72.48   L 218.016,73.152   L 217.344,74.304   L 217.92,74.976   L 218.688,75.36   L 217.632,76.896   L 216.48,78.048   L 215.808,79.296   L 215.232,80.736   L 215.04,80.832   L 214.752,80.832   L 213.984,79.584   L 214.08,78.144   L 215.04,78.144   L 215.616,77.664   L 215.616,76.8   L 215.232,76.32   L 214.752,76.416   L 214.176,76.608   L 213.216,76.512   L 212.352,76.032   L 211.392,75.648   L 210.432,75.744   L 209.952,76.032   L 209.472,75.648   L 209.088,75.168   L 208.608,74.784   L 206.688,74.976   L 204.96,75.552   L 203.52,76.608   L 202.176,77.76   L 201.408,76.992   L 200.544,76.032   L 201.024,75.168   L 202.08,74.688   L 202.464,74.496   L 202.848,74.016   L 202.464,72.96   L 201.6,72   L 200.16,72.384   L 199.008,73.344   L 198.816,72.288   L 198.432,71.232   L 196.8,71.328   L 196.416,72.192   L 195.744,72.96   L 195.36,73.728   L 195.648,74.592   L 195.36,74.784   L 194.976,74.016   L 194.4,73.536   L 193.056,73.344   L 191.712,73.248   L 190.656,72.672   L 189.6,72.48   L 188.928,72.864   L 188.16,72.672   L 187.296,72.096   L 186.528,71.424   L 185.664,70.752   L 184.8,69.984   L 183.552,69.312   L 182.112,69.12   L 180.96,68.832   L 180,69.216   L 178.656,69.6   L 177.888,70.848   L 176.928,70.944   L 176.16,71.424   L 175.296,72   L 174.432,72.288   L 173.28,73.536   L 171.84,74.4   L 171.264,73.728   L 170.688,72.864   L 170.016,72.288   L 168.96,72.48   L 168.192,72.864   L 167.424,73.344   L 166.656,73.728   L 165.888,74.016   L 165.12,74.784   L 164.16,75.36   L 162.912,75.168   L 161.76,74.784   L 162.432,74.688   L 163.104,74.4   L 163.2,73.536   L 163.2,72.672   L 162.528,72   L 161.472,71.904   L 160.8,72.192   L 160.416,72.864   L 160.512,73.344   L 160.8,73.728   L 161.088,73.632   L 161.376,73.344   L 161.472,73.44   L 161.472,73.344   L 161.376,74.304   L 160.224,74.592   L 159.072,74.592   L 158.016,74.688   L 157.056,75.264   L 157.056,76.032   L 155.712,75.744   L 154.464,75.84   L 153.12,76.224   L 151.872,76.704   L 151.2,77.568   L 150.432,77.856   L 150.24,77.664   L 150.24,78.528   L 149.856,79.392   L 149.472,80.16   L 148.8,80.544   L 148.704,79.968   L 149.088,79.488   L 149.76,79.104   L 150.048,78.432   L 149.376,77.664   L 148.8,76.8   L 148.128,76.128   L 147.072,75.936   L 145.728,76.224   L 144.576,75.744   L 143.808,76.224   L 143.04,76.416   L 141.696,76.704   L 140.448,76.608   L 139.104,76.224   L 137.76,76.032   L 137.088,76.8   L 137.184,77.856   L 137.28,78.24   L 137.184,78.432   L 136.992,78.432   L 136.8,78.432   L 136.128,77.952   L 135.36,77.76   L 134.016,78.048   L 132.96,78.816   L 132.768,79.392   L 132.576,79.872   L 131.616,79.968   L 130.752,80.064   L 129.792,80.064   L 128.832,80.064   L 127.968,79.296   L 126.912,79.008   L 125.76,80.352   L 124.416,81.408   L 124.128,81.984   L 123.744,82.656   L 123.072,82.752   L 122.688,83.136   L 122.88,83.808   L 123.456,84.288   L 123.936,85.056   L 124.32,85.92   L 124.512,86.784   L 124.224,87.744   L 124.608,88.8   L 125.472,89.664   L 126.528,89.568   L 127.584,89.856   L 128.544,89.952   L 129.504,89.472   L 130.656,89.856   L 131.808,90.24   L 132.96,90.336   L 134.112,89.76   L 134.88,90.144   L 135.552,90.048   L 136.32,89.952   L 137.088,89.856   L 137.856,89.28   L 138.624,88.992   L 139.392,90.048   L 140.448,90.336   L 141.504,89.376   L 142.848,89.184   L 143.04,89.76   L 143.424,90.144   L 144.192,89.952   L 144.96,90.24   L 145.728,90.336   L 146.304,89.76   L 147.36,89.472   L 148.512,89.184   L 149.76,88.8   L 150.528,87.936   L 150.336,86.88   L 150.24,85.92   L 151.392,85.632   L 152.64,85.632   L 153.312,85.536   L 153.888,85.632   L 153.984,86.304   L 153.504,86.784   L 153.216,87.936   L 152.448,88.704   L 153.216,89.568   L 154.56,89.856   L 154.848,89.856   L 155.232,89.472   L 155.52,88.8   L 156.288,88.416   L 157.056,88.128   L 157.824,87.744   L 158.496,87.264   L 159.168,86.784   L 160.32,87.072   L 161.184,87.744   L 161.088,89.184   L 160.416,90.432   L 160.416,90.912   L 160.8,91.392   L 161.952,90.432   L 163.104,89.76   L 163.776,89.952   L 164.448,90.528   L 165.696,90.624   L 166.656,91.104   L 166.752,91.584   L 166.656,92.16   L 167.808,93.12   L 168.96,93.984   L 169.248,94.56   L 169.728,94.944   L 170.4,94.944   L 170.784,95.232   L 169.92,96.576   L 169.44,98.016   L 169.344,98.304   L 169.44,98.688   L 170.304,99.072   L 170.976,99.456   L 171.072,100.512   L 170.976,101.664   L 171.84,103.008   L 172.896,104.16   L 173.28,104.352   L 173.376,104.832   L 172.608,105.12   L 171.84,105.408   L 171.84,106.56   L 172.032,107.808   L 172.512,108.672   L 173.376,109.344   L 174.528,109.92   L 175.872,110.208   L 176.544,108.864   L 177.216,107.616   L 176.256,106.848   L 176.16,105.984   L 177.216,106.272   L 178.176,106.464   L 179.232,105.024   L 180.576,103.872   L 180.864,104.448   L 181.056,105.12   L 180.864,105.792   L 181.056,106.56   L 181.536,107.232   L 181.344,108.288   L 180.48,108.48   L 179.328,108.672   L 178.56,109.44   L 177.6,109.728   L 177.12,110.88   L 176.832,112.032   L 175.968,112.224   L 175.2,112.608   L 175.392,113.664   L 176.448,114.528   L 176.352,115.488   L 176.544,116.448   L 176.544,117.312   L 175.776,117.984   L 175.68,118.464   L 175.776,118.944   L 175.776,119.808   L 175.776,120.672   L 175.2,121.728   L 175.008,122.88   L 175.104,123.936   L 175.488,125.088   L 175.968,126.048   L 175.872,127.008   L 176.064,127.776   L 176.256,128.448   L 176.448,129.12   L 176.64,129.888   L 177.216,130.368   L 177.984,130.56   L 178.464,131.904   L 178.656,133.248   L 177.6,134.4   L 176.928,135.744   L 176.256,137.088   L 175.296,138.336   L 175.68,139.104   L 176.256,139.968   L 176.736,140.256   L 177.216,140.448   L 177.024,141.6   L 177.312,142.656   L 177.408,143.808   L 176.832,144.864   L 177.12,145.728   L 177.6,146.496   L 177.984,147.36   L 178.176,148.32   L 178.368,149.568   L 178.848,150.912   L 179.136,151.584   L 178.944,152.352   L 178.944,153.408   L 178.56,154.272   L 178.368,155.232   L 178.848,156.096   L 179.04,157.056   L 178.656,157.92   L 178.56,158.976   L 178.464,159.936   L 178.464,160.992   L 178.656,161.952   L 178.656,162.624   L 178.272,163.296   L 178.176,164.448   L 177.312,165.312   L 177.024,165.216   L 176.64,165.408   L 176.832,166.656   L 177.312,167.712   L 177.984,168.096   L 178.656,168.48   L 179.424,168.864   L 180.288,168.96   L 180.768,167.904   L 181.248,166.56   L 181.92,167.616   L 182.784,168.096   L 183.072,167.616   L 183.456,167.424   L 183.648,168.192   L 183.456,168.96   L 182.592,169.92   L 181.728,170.784   L 180.864,169.728   L 180,169.152   L 179.712,169.632   L 179.328,170.112   L 178.752,170.016   L 178.368,169.632   L 178.176,168.768   L 177.6,168.384   L 176.352,167.808   L 175.296,167.904   L 175.008,169.152   L 175.2,170.208   L 175.392,170.88   L 175.872,171.36   L 175.968,172.32   L 175.872,173.28   L 175.968,174.144   L 176.64,174.72   L 177.216,174.528   L 177.504,174.048   L 178.272,172.992   L 179.232,171.936   L 179.712,171.744   L 180.096,171.936   L 180.48,172.32   L 180.576,172.896   L 181.536,173.856   L 182.688,174.912   L 182.88,175.2   L 183.072,175.392   L 183.552,175.392   L 183.744,175.008   L 183.744,174.144   L 184.224,173.664   L 184.8,173.856   L 185.088,174.24   L 184.512,174.624   L 184.128,175.104   L 183.936,175.872   L 183.36,176.448   L 182.496,175.872   L 181.344,175.584   L 180.384,175.68   L 179.424,176.16   L 180,177.216   L 179.712,178.368   L 179.328,179.52   L 179.04,180.768   L 179.232,181.728   L 179.712,182.688   L 180,183.552   L 179.904,184.512   L 180.288,185.28   L 180.096,186.24   L 179.904,186.816   L 179.904,187.584   L 180.384,187.968   L 181.056,187.968   L 182.208,186.816   L 182.784,185.28   L 182.496,184.416   L 181.92,183.648   L 182.304,182.88   L 182.4,181.824   L 183.264,181.056   L 184.416,180.768   L 184.512,181.92   L 184.512,182.976   L 184.512,184.128   L 184.8,185.088   L 185.664,185.76   L 186.24,186.624   L 186.912,187.296   L 187.968,187.392   L 188.256,187.584   L 188.16,187.968   L 186.912,188.544   L 186.144,189.696   L 185.088,189.696   L 184.224,190.368   L 184.128,191.136   L 183.456,191.136   L 182.976,191.712   L 182.496,191.808   L 181.92,191.808   L 181.248,191.136   L 181.248,190.176   L 181.44,189.6   L 181.056,189.024   L 180.288,188.448   L 179.424,188.16   L 178.752,187.584   L 177.888,187.296   L 177.024,187.68   L 176.448,188.352   L 176.64,189.696   L 176.544,190.848   L 177.216,191.52   L 178.176,191.52   L 178.368,190.944   L 178.176,190.464   L 178.752,190.272   L 179.328,190.464   L 179.328,190.752   L 178.944,191.136   L 178.464,191.232   L 178.368,191.712   L 178.464,192.672   L 179.04,193.248   L 179.52,193.92   L 179.328,194.88   L 179.328,196.32   L 178.368,197.376   L 177.312,198.144   L 176.256,199.008   L 175.104,199.392   L 174.048,199.776   L 173.952,199.584   L 173.76,199.392   L 173.664,199.584   L 173.568,199.584   L 173.376,199.296   L 173.088,198.912   L 172.128,199.008   L 171.264,199.2   L 170.304,199.2   L 169.44,198.912   L 169.248,198.24   L 169.248,197.664   L 169.344,197.856   L 169.44,197.952   L 169.632,197.856   L 169.632,197.664   L 169.248,197.184   L 169.248,196.608   L 169.536,196.512   L 169.92,196.704   L 170.208,197.472   L 170.4,198.24   L 170.592,198.528   L 170.976,198.72   L 172.032,198.624   L 172.8,197.952   L 173.472,197.184   L 174.432,196.608   L 174.912,196.032   L 175.296,195.36   L 175.2,194.496   L 174.528,193.824   L 173.568,193.152   L 172.224,192.768   L 171.552,192.864   L 170.976,192.768   L 170.4,191.808   L 170.304,190.944   L 170.496,189.984   L 170.784,189.024   L 170.784,188.16   L 170.88,187.392   L 170.592,186.624   L 170.016,186.048   L 169.536,185.376   L 168.672,185.088   L 167.808,183.744   L 166.656,182.592   L 166.08,182.88   L 165.6,183.264   L 164.736,182.112   L 163.2,181.824   L 162.336,180.864   L 161.376,180.864   L 160.32,180.48   L 159.168,180.096   L 159.072,179.232   L 158.496,178.464   L 158.016,178.656   L 157.728,179.136   L 157.152,180.096   L 156.288,180.864   L 155.424,181.344   L 154.464,181.632   L 153.504,182.016   L 152.64,182.592   L 151.68,182.88   L 151.2,183.552   L 151.296,184.032   L 151.776,184.32   L 152.16,184.608   L 152.448,185.088   L 152.256,185.376   L 150.624,185.088   L 149.568,183.84   L 149.856,182.784   L 149.856,182.112   L 149.184,182.304   L 148.416,182.208   L 148.512,180.864   L 149.664,180.864   L 150.432,180.384   L 149.472,179.904   L 148.704,179.808   L 147.936,180.096   L 147.072,179.808   L 146.016,179.328   L 144.96,178.848   L 144.768,179.616   L 144.768,180.48   L 145.632,180.96   L 146.112,181.536   L 146.112,182.112   L 146.304,182.592   L 146.784,182.688   L 147.36,182.784   L 147.264,183.456   L 146.976,183.936   L 146.208,183.36   L 145.44,183.168   L 144.096,183.36   L 142.656,183.648   L 141.6,184.896   L 140.256,185.568   L 139.584,185.76   L 138.912,185.664   L 138.144,185.856   L 137.376,185.664   L 136.992,184.992   L 136.224,184.32   L 135.456,184.512   L 134.976,185.088   L 135.36,185.856   L 135.36,186.72   L 134.208,186.816   L 132.96,187.104   L 132.576,187.872   L 132.672,188.736   L 132.192,188.544   L 131.616,188.64   L 131.328,189.12   L 131.328,189.696   L 131.904,190.176   L 132,190.848   L 130.944,191.136   L 129.888,190.848   L 128.832,190.56   L 127.776,190.56   L 126.912,190.464   L 126.048,190.56   L 125.184,190.752   L 124.416,191.232   L 123.84,192.384   L 124.032,193.536   L 124.32,194.688   L 124.512,195.936   L 123.84,196.512   L 123.072,196.992   L 122.592,196.032   L 122.112,195.072   L 121.44,194.4   L 120.384,194.112   L 119.424,194.4   L 118.56,194.112   L 117.12,194.496   L 116.16,195.552   L 115.872,196.32   L 115.968,196.992   L 116.064,198.048   L 115.2,199.008   L 114.72,198.912   L 114.24,198.912   L 114.048,199.2   L 114.144,199.584   L 114.432,199.68   L 114.528,200.064   L 113.376,200.352   L 112.224,200.064   L 111.84,200.064   L 111.456,200.352   L 111.36,201.312   L 111.648,202.176   L 112.032,202.944   L 112.704,203.712   L 113.856,204   L 115.104,203.712   L 115.392,202.752   L 115.2,201.792   L 115.776,202.464   L 116.64,203.136   L 116.256,204.384   L 116.448,205.632   L 117.408,205.344   L 118.272,204.768   L 119.136,204.864   L 120,205.056   L 120.96,205.056   L 121.728,204.576   L 122.688,205.344   L 123.84,205.536   L 124.704,206.016   L 125.472,205.92   L 126.144,205.344   L 126.912,205.536   L 128.16,206.688   L 129.6,207.264   L 130.656,206.88   L 131.712,206.592   L 132.672,206.4   L 133.728,206.208   L 135.072,206.88   L 136.512,207.36   L 136.896,207.936   L 137.376,207.936   L 137.664,207.744   L 138.144,207.648   L 138.432,208.224   L 139.104,208.32   L 139.392,207.456   L 139.296,206.496   L 140.448,206.976   L 140.544,207.648   L 140.928,208.32   L 142.176,208.32   L 143.232,208.704   L 144.288,209.184   L 145.44,209.28   L 146.4,209.184   L 147.264,209.376   L 148.224,209.568   L 149.088,209.664   L 149.088,210.336   L 149.376,211.104   L 150.048,211.2   L 150.624,211.104   L 151.488,211.392   L 152.448,211.392   L 153.312,211.68   L 153.888,212.352   L 155.424,212.544   L 156.576,213.696   L 157.728,214.176   L 158.976,214.368   L 159.84,213.792   L 160.896,213.792   L 161.952,214.368   L 163.104,214.464   L 163.392,213.888   L 163.776,213.408   L 163.68,214.176   L 163.872,215.04   L 164.64,214.56   L 165.312,213.888   L 166.176,214.176   L 167.04,214.656   L 167.808,214.848   L 168.768,214.56   L 169.728,214.464   L 170.4,213.888   L 171.744,213.408   L 173.088,212.736   L 173.376,212.448   L 173.568,212.448   L 173.376,213.504   L 172.8,214.464   L 171.744,214.176   L 170.688,214.368   L 170.112,214.848   L 170.112,215.52   L 170.304,216.096   L 170.784,216.48   L 171.936,216.288   L 173.184,216.384   L 174.24,215.52   L 174.624,214.368   L 175.776,214.464   L 176.832,214.56   L 177.312,215.616   L 177.312,216.768   L 177.6,217.728   L 178.848,217.824   L 179.328,218.4   L 180.096,218.784   L 181.056,218.592   L 181.92,218.112   L 182.304,216.96   L 182.112,215.904   L 181.824,214.848   L 181.92,213.792   L 182.592,213.12   L 183.36,213.312   L 184.128,214.368   L 185.184,215.232   L 186.624,214.944   L 187.872,215.232   L 188.736,214.848   L 189.504,214.56   L 189.984,214.176   L 190.656,214.464   L 190.848,214.56   L 191.232,214.464   L 191.424,213.408   L 191.424,212.448   L 191.328,211.392   L 191.616,210.336   L 192.576,209.184   L 193.92,208.512   L 194.4,207.936   L 195.168,208.896   L 196.128,209.376   L 196.704,210.72   L 197.28,211.968   L 198.144,212.256   L 199.008,212.352   L 199.872,211.872   L 200.736,211.488   L 201.696,211.008   L 202.464,210.336   L 203.232,210.336   L 204,210.048   L 204.096,209.664   L 204.48,209.28   L 205.536,209.472   L 206.592,209.664   L 206.976,210.336   L 206.4,210.432   L 206.208,211.008   L 206.976,212.256   L 208.032,212.736   L 208.416,212.064   L 208.32,211.104   L 208.032,210.528   L 207.552,210.336   L 208.128,209.76   L 208.704,208.992   L 209.088,208.608   L 209.664,208.608   L 210.24,209.376   L 211.104,209.76   L 211.872,209.76   L 212.64,209.952   L 213.408,210.24   L 214.272,210.336   L 214.944,210.432   L 215.616,210.24   L 216.192,209.568   L 216.384,208.8   L 216.48,208.032   L 217.152,207.36   L 218.016,207.648   L 218.88,207.648   L 219.648,207.648   L 220.224,208.32   L 221.28,207.456   L 222.336,207.552   L 222.912,207.36   L 223.392,206.88   L 223.392,206.784   L 224.16,207.168   L 224.832,207.36   L 224.928,208.512   L 225.504,209.28   L 226.368,209.568   L 227.136,209.664   L 227.808,208.8   L 227.904,207.648   L 228.768,207.264   L 229.632,207.264   L 230.4,207.36   L 231.264,207.36   L 232.032,207.456   L 232.704,207.936   L 233.472,207.552   L 234.24,207.168   L 235.008,206.976   L 235.776,207.168   L 236.544,206.784   L 237.216,206.208   L 238.656,206.4   L 239.904,206.88   L 240.384,207.84   L 241.152,208.608   L 241.92,208.608   L 242.688,208.32   L 243.168,207.648   L 243.648,207.264   L 243.072,208.128   L 242.976,209.088   L 243.648,209.472   L 244.416,209.568   L 245.28,209.472   L 246.048,209.76   L 247.104,209.28   L 248.16,208.608   L 248.448,208.416   L 248.736,208.512   L 249.312,209.28   L 249.504,210.336   L 248.928,211.296   L 248.832,212.352   L 250.368,212.928   L 251.616,213.888   L 252.864,213.984   L 253.824,214.464   L 252.96,214.752   L 252.288,214.944   L 251.52,215.232   L 250.752,215.712   L 250.56,215.52   L 250.464,215.424   L 249.312,216.096   L 248.064,216.864   L 247.968,216.672   L 247.776,216.48   L 247.488,216.576   L 247.104,216.864   L 247.2,217.056   L 247.488,217.248   L 247.68,217.344   L 247.776,217.248   L 247.584,217.824   L 247.008,218.304   L 246.432,218.208   L 246.432,218.016   L 246.336,217.92   L 245.28,218.688   L 244.992,219.84   L 245.76,220.896   L 246.816,222.048   L 246.528,222.624   L 245.952,223.008   L 244.608,223.008   L 243.552,222.336   L 242.688,222.24   L 241.824,222.048   L 241.248,222.816   L 240.288,223.008   L 239.328,223.392   L 238.272,223.968   L 237.312,224.256   L 236.448,223.776   L 235.68,223.68   L 234.912,223.392   L 234.144,223.392   L 233.376,223.68   L 232.704,224.928   L 231.648,225.888   L 231.168,226.56   L 231.072,227.424   L 231.84,228.48   L 232.032,229.92   L 231.936,230.304   L 231.648,230.784   L 231.168,230.592   L 230.592,230.208   L 230.4,229.536   L 229.92,228.864   L 229.152,229.728   L 228.864,230.88   L 228.48,229.536   L 227.616,228.384   L 226.944,228.576   L 226.176,228.384   L 226.08,227.712   L 226.56,227.52   L 226.944,227.232   L 227.232,226.944   L 227.232,226.464   L 226.368,226.56   L 225.504,227.04   L 224.544,226.56   L 223.584,225.792   L 222.72,225.408   L 221.76,225.888   L 222.048,226.944   L 221.664,227.904   L 221.28,227.808   L 220.8,227.904   L 220.416,227.424   L 219.936,227.232   L 219.456,227.808   L 219.648,228.48   L 220.032,228.96   L 219.456,229.248   L 219.072,229.824   L 219.168,230.112   L 219.264,230.496   L 218.976,229.728   L 218.88,228.864   L 218.208,228   L 217.344,227.52   L 217.152,227.904   L 217.152,228.384   L 216,228.096   L 214.848,227.52   L 213.792,227.232   L 212.832,227.808   L 213.6,228.288   L 214.272,228.864   L 214.176,229.92   L 213.504,230.784   L 213.408,230.016   L 212.832,229.632   L 211.776,229.536   L 210.816,229.824   L 210.048,230.784   L 208.704,231.264   L 208.416,231.936   L 208.416,232.608   L 208.128,232.608   L 207.744,232.896   L 207.648,232.416   L 207.36,232.032   L 206.88,232.032   L 206.592,232.32   L 206.592,232.896   L 206.976,233.28   L 207.36,233.28   L 207.264,233.76   L 206.88,233.76   L 206.112,233.568   L 205.248,233.376   L 203.808,232.608   L 202.752,231.36   L 201.984,231.168   L 201.408,230.784   L 200.832,229.824   L 200.448,228.576   L 200.16,228.288   L 199.776,228.192   L 199.488,229.152   L 199.392,230.112   L 197.952,230.496   L 197.088,231.84   L 196.704,232.704   L 196.704,233.664   L 195.936,233.76   L 195.168,233.376   L 194.976,232.896   L 194.976,232.32   L 195.456,231.744   L 195.648,230.976   L 194.592,230.4   L 193.44,230.208   L 193.248,230.976   L 193.248,231.744   L 193.344,232.512   L 193.44,233.28   L 194.112,234.528   L 194.976,235.584   L 194.88,235.968   L 194.4,236.064   L 193.824,236.16   L 193.44,236.64   L 193.44,236.928   L 193.248,237.312   L 192.864,236.64   L 192.576,235.968   L 191.808,236.448   L 191.136,237.024   L 190.464,237.408   L 189.6,237.312   L 189.888,236.64   L 190.368,235.872   L 190.464,235.2   L 190.176,234.432   L 189.504,234.624   L 188.928,234.624   L 189.024,233.28   L 188.64,232.032   L 188.352,231.168   L 187.776,230.592   L 186.72,230.784   L 186.144,231.36   L 186.048,232.224   L 185.856,233.088   L 185.664,234.048   L 185.76,234.912   L 185.088,235.776   L 184.128,236.064   L 183.936,234.624   L 184.224,233.376   L 184.224,232.32   L 183.744,231.36   L 183.264,231.36   L 182.688,231.36   L 182.016,232.512   L 180.96,233.088   L 180.48,233.952   L 179.712,234.624   L 179.328,235.392   L 179.904,236.16   L 179.808,236.544   L 179.712,237.024   L 179.616,236.64   L 179.232,236.352   L 178.272,236.352   L 177.6,236.832   L 177.504,237.216   L 177.6,237.696   L 176.544,238.464   L 175.296,239.328   L 174.048,240   L 172.704,239.904   L 172.128,240.192   L 171.84,240.576   L 171.456,241.056   L 171.072,241.536   L 170.4,242.4   L 169.44,242.88   L 168.768,242.784   L 168.96,241.728   L 169.44,240.864   L 170.016,240   L 170.496,239.136   L 170.976,238.368   L 171.552,237.6   L 171.936,236.832   L 171.648,235.968   L 170.88,235.488   L 170.112,235.584   L 169.728,235.392   L 169.248,235.584   L 168.768,235.872   L 168,235.968   L 166.848,237.024   L 165.6,237.792   L 164.064,238.368   L 162.528,238.464   L 161.568,237.984   L 160.8,237.216   L 159.936,236.448   L 158.976,236.064   L 158.016,234.912   L 156.672,234.336   L 156.576,234.144   L 156.384,233.952   L 155.712,234.144   L 155.04,234.24   L 154.848,233.952   L 154.656,233.664   L 154.176,233.952   L 153.696,234.048   L 153.312,233.568   L 152.928,232.896   L 152.352,233.088   L 151.872,233.952   L 151.488,234.24   L 151.104,234.336   L 150.912,233.664   L 151.104,232.992   L 151.872,232.416   L 152.256,231.648   L 151.296,231.072   L 150.24,230.592   L 149.76,231.456   L 149.472,232.32   L 148.8,232.128   L 148.224,232.32   L 147.84,233.184   L 148.032,234.24   L 148.224,234.912   L 148.128,235.584   L 147.936,235.776   L 147.648,235.776   L 147.264,234.72   L 146.976,233.664   L 146.208,233.28   L 145.344,233.28   L 144.48,233.184   L 143.904,232.608   L 142.656,232.32   L 141.504,231.84   L 140.448,231.744   L 139.584,232.704   L 138.912,232.8   L 138.24,232.512   L 138.24,231.168   L 138.912,230.112   L 139.488,230.784   L 140.256,231.36   L 141.12,231.168   L 141.888,230.784   L 143.04,231.168   L 143.904,231.936   L 144.576,232.32   L 145.248,232.32   L 145.92,231.36   L 146.496,230.304   L 146.4,229.728   L 146.016,229.44   L 144.768,229.632   L 144,230.208   L 143.904,230.208   L 143.712,230.304   L 143.52,229.44   L 142.848,228.864   L 142.08,228.672   L 141.504,228.384   L 141.6,227.616   L 141.504,227.04   L 140.352,227.04   L 139.2,227.232   L 138.048,228.384   L 136.512,228.864   L 135.264,227.808   L 133.728,227.52   L 133.44,227.136   L 133.344,226.56   L 132.48,225.504   L 131.328,224.736   L 131.808,224.256   L 131.712,223.68   L 131.424,223.488   L 131.232,223.296   L 130.848,223.488   L 130.56,223.776   L 130.656,224.352   L 130.944,224.736   L 130.464,225.12   L 130.176,225.792   L 131.04,226.56   L 130.464,226.656   L 129.984,226.464   L 129.792,225.696   L 129.312,225.312   L 128.64,225.6   L 127.872,225.504   L 127.104,225.408   L 126.432,225.408   L 126.144,225.12   L 125.856,224.736   L 125.472,225.024   L 125.088,225.312   L 124.704,224.736   L 124.512,224.064   L 126.24,223.584   L 127.296,222.432   L 127.392,221.376   L 126.528,220.992   L 125.376,220.896   L 124.128,220.608   L 123.552,220.032   L 122.976,219.648   L 122.592,219.648   L 122.4,219.936   L 122.88,220.992   L 123.456,221.952   L 124.128,222.912   L 123.456,223.392   L 122.688,223.296   L 122.112,222.432   L 121.248,221.952   L 120.48,222.432   L 119.712,222.912   L 119.232,222.432   L 118.56,222.336   L 117.984,222.912   L 117.888,223.776   L 118.656,224.064   L 119.328,224.16   L 119.904,224.832   L 120.768,224.736   L 121.344,224.448   L 121.824,224.448   L 122.688,225.312   L 121.344,225.6   L 120.576,226.464   L 119.808,226.08   L 119.04,225.696   L 118.656,225.024   L 118.176,224.64   L 117.216,224.256   L 116.448,223.68   L 115.2,222.528   L 113.76,221.664   L 113.184,221.472   L 112.8,220.992   L 112.032,221.088   L 111.264,220.896   L 110.592,220.704   L 109.824,220.608   L 110.208,219.36   L 111.36,218.208   L 112.128,218.496   L 113.088,218.304   L 113.28,217.92   L 112.896,217.536   L 111.744,216.768   L 110.4,216.384   L 109.536,215.136   L 108.288,215.136   L 107.328,215.04   L 106.368,215.04   L 106.08,215.136   L 105.888,215.52   L 106.08,216.288   L 106.848,216.864   L 108,216.48   L 107.616,217.632   L 106.56,218.496   L 105.792,218.496   L 104.928,217.92   L 105.6,216.864   L 105.312,215.808   L 105.504,215.424   L 105.6,215.136   L 104.832,214.368   L 103.872,214.176   L 102.912,213.888   L 102.432,213.024   L 101.184,212.928   L 100.128,213.792   L 99.84,214.56   L 99.36,215.136   L 99.36,215.712   L 98.592,215.712   L 98.112,215.424   L 98.112,214.848   L 98.4,214.464   L 99.456,214.272   L 100.128,213.696   L 100.032,212.832   L 99.936,212.064   L 99.648,211.296   L 99.36,210.624   L 98.208,210.336   L 97.248,210.912   L 96.672,210.24   L 96.576,209.088   L 97.344,208.608   L 97.632,207.84   L 96.96,207.36   L 96.288,207.264   L 95.616,208.032   L 95.712,208.896   L 95.808,209.184   L 95.616,209.664   L 94.56,209.472   L 93.984,208.704   L 93.312,208.128   L 92.544,208.896   L 91.968,209.952   L 91.968,211.008   L 92.544,211.488   L 93.216,211.68   L 93.696,211.488   L 94.272,211.584   L 94.656,211.968   L 95.232,212.16   L 94.08,212.832   L 92.928,213.024   L 92.544,212.448   L 91.872,212.16   L 90.72,212.544   L 89.472,213.024   L 89.28,211.68   L 88.416,210.624   L 87.456,209.952   L 86.496,209.28   L 85.728,208.512   L 84.576,208.512   L 83.712,208.896   L 82.944,209.28   L 82.176,209.76   L 81.6,210.336   L 81.024,210.144   L 80.64,209.664   L 79.776,208.608   L 79.296,207.36   L 79.008,207.072   L 78.528,206.976   L 77.856,207.36   L 76.8,207.36   L 76.224,208.128   L 75.456,208.032   L 74.208,208.512   L 72.96,209.088   L 72.288,209.76   L 71.808,210.72   L 71.232,211.488   L 70.272,211.776   L 70.272,211.2   L 70.176,210.624   L 69.312,210.24   L 68.928,209.568   L 68.064,209.088   L 67.2,208.8   L 66.24,208.512   L 65.472,207.936   L 64.128,207.168   L 62.688,206.88   L 61.344,206.592   L 60,206.784   L 58.848,207.84   L 57.6,208.224   L 57.024,206.784   L 55.776,205.824   L 54.72,205.44   L 53.568,205.632   L 52.992,206.4   L 52.416,206.304   L 52.128,205.92   L 51.744,205.536   L 50.496,205.536   L 49.152,205.92   L 48,206.112   L 46.848,205.44   L 47.52,204.768   L 47.616,203.808   L 46.368,203.424   L 45.312,202.848   L 44.832,202.656   L 44.256,202.56   L 43.776,201.792   L 42.912,201.408   L 42.432,201.504   L 41.856,201.504   L 41.184,200.736   L 40.224,200.064   L 40.128,200.064   L 40.704,199.872   L 41.184,199.392   L 39.84,198.72   L 38.4,198.72   L 38.112,199.008   L 38.304,199.296   L 38.592,199.488   L 38.976,199.776   L 38.016,200.352   L 37.056,200.64   L 37.056,199.872   L 37.248,199.104   L 36.864,198.432   L 36.096,197.952   L 35.232,197.76   L 34.656,197.28   L 33.504,197.76   L 32.832,198.72   L 33.024,199.68   L 32.64,200.736   L 32.16,200.928   L 31.584,201.024   L 30.528,202.176   L 29.184,202.848   L 27.84,203.808   L 26.4,204.864   L 25.536,204.672   L 24.96,205.056   L 24.288,205.536   L 23.424,205.536   L 22.176,205.248   L 20.832,205.536   L 20.16,205.248   L 19.488,205.152   L 18.528,205.632   L 17.568,205.536   L 16.512,204.768   L 15.36,204.48   L 14.016,205.248   L 12.672,205.824   L 12,206.4   L 11.04,206.496   L 11.04,205.728   L 10.56,205.248   L 9.408,205.248   L 8.544,205.824   L 8.832,206.304   L 9.312,206.496   L 9.888,207.648   L 9.888,208.992   L 9.12,209.76   L 8.448,210.624   L 7.968,209.376   L 7.296,208.032   L 7.104,207.168   L 6.432,206.304   L 5.184,206.784   L 3.84,206.784   L 2.784,205.824   L 1.728,204.864   L 1.152,205.824   L 0.576,206.784   L 0.192,206.016   L 0.096,204.96   L 1.248,203.712   L 2.4,202.752   L 2.688,201.888   L 3.264,201.024   L 3.552,200.256   L 3.168,199.392   L 2.016,198.912   L 0.768,198.912   L 0.672,198.432   L 0.768,197.952   L 1.728,197.088   L 2.112,195.84   L 1.92,194.784   L 1.728,193.632   L 2.112,193.92   L 2.496,193.92   L 2.976,193.152   L 3.456,192.48   L 3.936,191.712   L 4.128,190.848   L 5.184,189.984   L 6.528,189.696   L 6.72,189.408   L 7.104,189.6   L 7.2,190.08   L 6.624,190.56   L 6.72,191.136   L 7.68,191.328   L 8.832,191.136   L 9.408,190.464   L 10.176,190.464   L 11.04,190.56   L 11.712,190.368   L 12.096,190.752   L 12.672,191.04   L 13.344,189.696   L 13.056,188.352   L 11.712,188.352   L 10.656,188.736   L 9.984,188.352   L 9.216,188.064   L 8.928,186.816   L 9.216,185.664   L 10.08,185.568   L 10.848,185.376   L 11.712,185.184   L 12.576,185.28   L 13.44,184.704   L 14.496,184.224   L 15.552,183.936   L 16.704,183.936   L 16.512,184.8   L 16.32,185.664   L 16.032,186.432   L 15.648,187.104   L 15.84,187.776   L 16.224,188.064   L 17.472,187.776   L 18.144,186.912   L 18.624,185.568   L 18.432,184.224   L 17.856,183.84   L 17.376,183.36   L 17.856,183.264   L 18.24,183.36   L 18.72,184.224   L 19.008,185.184   L 19.488,185.952   L 20.448,186.336   L 20.64,185.088   L 20.448,183.84   L 21.216,184.224   L 22.272,184.224   L 23.328,184.224   L 24.096,184.512   L 24.864,184.32   L 25.536,184.032   L 26.208,183.744   L 26.976,183.936   L 27.552,183.648   L 28.032,183.264   L 27.84,182.016   L 27.84,180.864   L 28.896,180.576   L 29.568,179.904   L 30.144,178.944   L 30.72,178.08   L 31.2,177.792   L 31.488,177.312   L 31.584,176.544   L 31.968,175.776   L 32.16,175.104   L 31.872,174.336   L 31.392,173.76   L 31.488,173.088   L 31.968,172.608   L 32.64,172.608   L 33.024,172.896   L 33.504,172.896   L 33.792,172.128   L 33.312,171.36   L 33.504,170.496   L 33.312,169.632   L 32.16,168.672   L 31.2,167.424   L 30.72,166.368   L 30.048,165.408   L 29.184,164.64   L 28.224,164.064   L 27.168,164.16   L 26.112,164.064   L 26.112,163.2   L 25.632,162.336   L 25.536,161.472   L 25.44,160.608   L 26.304,159.264   L 26.016,158.304   L 25.536,157.44   L 24.96,156.768   L 24.096,156.192   L 23.04,156.288   L 22.272,156.864   L 21.984,155.808   L 21.696,154.56   L 20.832,153.984   L 20.448,153.12   L 20.544,151.872   L 20.544,150.432   L 19.968,149.952   L 19.104,149.664   L 18.144,149.28   L 17.76,148.512   L 19.104,148.32   L 20.448,147.84   L 20.736,147.072   L 20.448,146.304   L 20.064,145.44   L 19.776,144.768   L 19.584,143.424   L 20.256,142.56   L 20.544,141.792   L 20.448,140.928   L 20.16,139.968   L 19.872,139.104   L 19.296,138.336   L 18.72,137.472   L 18.336,136.608   L 18.048,135.648   L 17.28,134.976   L 16.416,134.784   L 15.36,134.688   L 14.496,135.264   L 14.496,135.744   L 14.112,136.224   L 13.248,136.224   L 13.248,134.88   L 13.344,133.632   L 13.056,133.056   L 13.248,132.48   L 13.632,131.328   L 13.44,130.272   L 12.96,129.216   L 12.576,128.16   L 12.192,127.776   L 11.712,127.68   L 10.944,128.928   L 10.176,129.888   L 9.312,129.696   L 8.64,129.216   L 7.872,128.736   L 7.104,128.544   L 6.72,127.488   L 6.816,126.336   L 7.2,125.28   L 7.776,124.32   L 8.64,124.224   L 9.6,124.032   L 10.464,123.552   L 11.328,123.072   L 11.04,124.224   L 11.424,125.088   L 11.904,124.992   L 12.096,124.608   L 12.384,124.032   L 12.96,123.744   L 14.4,123.264   L 15.744,123.744   L 16.512,123.264   L 17.088,122.592   L 18.528,122.304   L 19.872,121.728   L 20.736,122.304   L 21.504,122.304   L 22.752,121.344   L 23.904,120.96   L 24.384,120.864   L 24.672,120.576   L 24.48,119.712   L 24.768,118.944   L 25.92,119.136   L 27.072,119.232   L 28.224,120.096   L 29.472,120.192   L 30.816,119.904   L 32.064,119.328   L 33.312,118.656   L 34.56,117.984   L 35.808,117.6   L 37.248,117.888   L 37.344,117.312   L 37.632,116.832   L 39.072,117.216   L 40.416,117.408   L 39.744,118.176   L 39.744,119.232   L 40.608,120.384   L 41.376,121.632   L 42.24,122.208   L 43.296,122.4   L 43.968,121.728   L 44.64,121.248   L 45.12,122.016   L 45.024,122.88   L 45.024,123.744   L 45.696,124.32   L 45.408,125.088   L 45.12,126.048   L 46.176,126.336   L 47.232,126.144   L 47.04,127.2   L 46.368,128.16   L 45.792,129.12   L 45.984,130.272   L 45.888,130.848   L 46.176,131.52   L 46.56,131.904   L 46.56,132.288   L 45.984,132.48   L 45.6,132.576   L 45.216,131.52   L 45.504,130.56   L 45.216,129.888   L 44.64,129.504   L 44.064,129.696   L 43.488,130.176   L 43.008,131.04   L 42.24,131.712   L 41.472,132.288   L 40.8,133.056   L 40.032,133.056   L 39.36,133.536   L 39.264,134.016   L 39.456,134.592   L 40.224,135.264   L 39.456,135.744   L 38.784,136.512   L 38.88,137.28   L 38.976,138.048   L 38.976,138.816   L 38.304,139.392   L 37.344,139.968   L 36.672,140.832   L 36.96,142.08   L 37.728,142.944   L 38.4,143.808   L 38.304,144.96   L 38.208,146.112   L 37.92,147.168   L 37.44,148.032   L 36.768,148.896   L 36.672,150.24   L 36.288,151.584   L 36.864,152.16   L 37.728,152.352   L 37.92,152.16   L 38.112,152.16   L 38.4,153.024   L 38.112,153.792   L 37.92,154.752   L 37.728,155.712   L 39.072,156.48   L 40.128,157.536   L 40.896,157.92   L 41.472,158.112   L 41.568,158.976   L 41.76,159.84   L 42.24,160.608   L 42.816,161.376   L 43.584,162.432   L 44.256,163.584   L 44.256,164.064   L 44.544,164.352   L 45.504,163.68   L 46.656,163.584   L 47.424,163.488   L 48,163.776   L 46.848,164.448   L 45.888,165.312   L 45.312,166.464   L 44.928,167.808   L 45.504,168.672   L 46.176,169.44   L 46.944,169.344   L 47.712,169.632   L 48.192,170.4   L 48.768,170.976   L 49.056,171.552   L 49.632,171.84   L 50.592,172.32   L 51.456,172.896   L 52.032,173.664   L 52.896,174.24   L 53.568,174.048   L 54.24,174.048   L 54.144,174.816   L 54.528,175.296   L 55.008,175.104   L 55.2,174.72   L 55.2,174.432   L 56.256,174.912   L 56.64,175.68   L 55.2,175.776   L 54.048,176.16   L 52.512,176.256   L 51.36,177.024   L 51.264,177.792   L 51.648,178.464   L 51.744,178.464   L 51.84,178.464   L 52.032,179.712   L 52.704,180.768   L 52.416,181.824   L 52.8,182.784   L 53.664,182.592   L 54.24,181.824   L 55.2,181.632   L 56.16,181.248   L 56.928,179.904   L 57.888,178.56   L 58.272,179.616   L 58.176,180.768   L 57.696,181.632   L 57.12,182.496   L 56.448,183.36   L 55.776,184.224   L 56.256,185.472   L 57.312,186.624   L 57.12,187.68   L 56.64,188.448   L 57.12,189.696   L 58.176,190.464   L 59.136,191.136   L 59.904,192.192   L 60.672,192.768   L 61.632,192.768   L 62.208,192.096   L 62.784,191.424   L 63.168,190.656   L 63.168,189.792   L 62.112,188.736   L 60.672,187.968   L 60.672,187.488   L 60.96,187.008   L 62.304,187.104   L 63.456,187.392   L 63.744,187.968   L 64.224,188.352   L 65.376,188.352   L 66.528,188.064   L 67.488,186.72   L 67.584,187.392   L 67.296,188.064   L 66.912,188.448   L 66.816,189.12   L 67.872,189.216   L 69.12,189.312   L 69.216,190.08   L 69.312,190.848   L 68.736,191.328   L 68.256,192.096   L 68.64,192.384   L 69.216,192.48   L 69.504,192.288   L 69.888,192.384   L 69.984,192.96   L 69.696,193.536   L 69.312,193.536   L 69.6,193.152   L 69.6,192.768   L 69.408,192.576   L 69.12,192.768   L 68.928,192.96   L 68.64,192.96   L 68.352,192.48   L 68.16,191.808   L 67.584,190.848   L 66.816,190.464   L 66.144,191.04   L 65.376,191.52   L 65.28,192.48   L 65.472,193.536   L 66.528,194.112   L 67.2,194.88   L 67.68,195.072   L 68.448,194.88   L 69.504,195.36   L 70.656,195.36   L 71.328,195.744   L 72.288,195.84   L 72.672,195.264   L 72.096,194.688   L 71.904,194.112   L 72.576,193.824   L 73.248,193.536   L 73.728,193.92   L 74.304,194.112   L 75.072,193.632   L 75.936,193.152   L 76.8,192.864   L 77.76,192.96   L 78.432,192.864   L 79.104,192.864   L 80.16,192.48   L 80.928,192.864   L 82.08,193.248   L 83.328,193.248   L 84.288,192.864   L 85.44,192.768   L 85.92,193.728   L 86.976,194.496   L 87.168,194.304   L 87.36,194.112   L 87.264,193.344   L 87.648,192.768   L 88.128,193.728   L 88.8,194.784   L 89.472,194.784   L 89.856,195.168   L 90.528,195.36   L 91.296,195.36   L 91.296,195.552   L 91.2,195.648   L 91.584,196.224   L 92.16,196.512   L 92.832,196.032   L 93.216,195.36   L 92.928,194.688   L 92.256,194.112   L 91.584,194.208   L 90.912,194.112   L 91.104,193.728   L 91.488,193.536   L 92.16,192.576   L 93.12,192.384   L 93.312,193.632   L 94.176,194.304   L 95.136,193.44   L 96.576,192.96   L 96.384,193.536   L 96.384,193.92   L 97.248,193.728   L 98.016,192.96   L 97.824,192.576   L 97.632,192.096   L 98.592,191.424   L 99.36,190.56   L 99.456,189.984   L 98.976,189.696   L 98.112,189.792   L 98.4,188.448   L 98.112,187.296   L 98.496,186.528   L 98.4,185.76   L 98.208,184.896   L 98.112,184.224   L 98.592,183.648   L 98.784,182.88   L 98.784,182.016   L 99.072,181.248   L 98.592,180.384   L 98.784,179.52   L 98.304,178.56   L 98.304,177.408   L 98.016,177.024   L 97.728,176.736   L 97.248,176.928   L 96.768,177.024   L 97.632,176.16   L 98.112,175.008   L 97.344,174.624   L 96.576,174.624   L 96.384,173.856   L 96.384,173.088   L 97.344,172.512   L 98.4,172.032   L 99.648,170.88   L 100.224,169.248   L 100.608,169.056   L 101.088,168.96   L 101.28,169.632   L 101.76,169.92   L 102.048,169.728   L 102.144,169.536   L 102.048,168.096   L 101.184,167.136   L 101.376,166.368   L 101.76,165.696   L 101.76,166.464   L 102.048,167.136   L 102.528,167.04   L 102.72,166.56   L 102.816,165.792   L 102.528,165.12   L 102.144,165.312   L 102.048,165.504   L 102.144,164.832   L 102.144,164.16   L 101.376,163.488   L 101.184,162.624   L 100.992,161.76   L 100.416,161.088   L 100.128,160.224   L 100.128,159.36   L 99.648,157.632   L 100.032,157.632   L 100.416,157.44   L 100.512,156.768   L 100.128,156.096   L 100.512,155.136   L 100.224,154.176   L 99.648,153.792   L 99.168,153.312   L 99.84,152.352   L 100.32,151.296   L 100.512,150.24   L 100.416,149.088   L 99.744,148.992   L 99.072,148.896   L 98.592,148.032   L 98.4,146.976   L 98.88,146.304   L 98.976,145.536   L 98.4,145.056   L 98.4,144.48   L 98.592,144.48   L 98.784,144.384   L 98.4,144.192   L 98.016,144.096   L 97.44,144   L 96.96,143.808   L 96.672,142.944   L 96.672,141.888   L 97.152,141.6   L 97.632,141.696   L 98.496,141.408   L 99.072,140.352   L 99.072,139.68   L 99.168,139.872   L 99.36,140.16   L 99.744,140.16   L 100.032,139.968   L 99.264,138.72   L 99.36,137.568   L 99.36,137.088   L 99.648,136.608   L 99.744,136.608   L 99.456,137.472   L 99.648,138.336   L 100.896,138.24   L 101.856,137.664   L 101.952,136.704   L 101.856,135.84   L 101.856,134.976   L 102.048,134.208   L 101.952,133.728   L 101.568,133.536   L 101.088,133.152   L 100.896,132.48   L 100.32,131.808   L 100.128,131.136   L 99.744,130.464   L 99.744,129.696   L 99.744,128.928   L 99.648,128.16   L 99.648,127.68   L 100.128,127.488   L 100.704,127.392   L 100.896,126.816   L 100.8,125.568   L 100.992,124.416   L 101.28,123.264   L 101.376,122.016   L 101.184,121.92   L 101.856,120.576   L 101.568,119.232   L 100.8,119.52   L 100.416,120.192   L 100.32,120.96   L 100.416,121.728   L 99.84,120.672   L 99.648,119.232   L 99.648,117.792   L 99.84,116.544   L 100.512,117.888   L 101.472,118.464   L 101.664,117.696   L 101.76,116.928   L 101.76,116.16   L 101.376,115.488   L 100.704,114.912   L 100.032,115.008   L 99.84,115.2   L 98.976,114.528   L 99.36,113.472   L 100.224,112.128   L 101.184,110.688   L 101.088,109.824   L 101.088,109.056   L 101.376,109.056   L 101.376,109.344   L 101.472,109.536   L 102.624,109.056   L 103.296,108.192   L 103.104,107.424   L 102.72,106.656   L 102.24,107.424   L 101.568,107.904   L 101.376,108.288   L 101.088,108.096   L 101.088,107.808   L 100.608,106.848   L 100.224,105.792   L 101.76,105.504   L 102.528,104.736   L 102.24,103.968   L 102.144,103.104   L 103.104,102.432   L 104.448,102.048   L 105.408,101.376   L 106.56,101.376   L 108,101.088   L 109.056,100.032   L 109.536,100.224   L 109.824,100.704   L 110.784,100.128   L 111.648,99.456   L 112.512,98.784   L 113.376,98.016   L 114.432,97.056   L 115.584,96.288   L 116.736,95.808   L 118.176,95.616   L 118.752,94.272   L 119.904,93.792   L 120.384,92.832   L 121.152,92.16   L 122.112,91.776   L 123.072,91.488   L 123.552,91.008   L 123.648,90.336   L 122.208,89.76   L 121.056,88.992   L 119.616,88.8   L 118.368,88.32   L 117.696,88.992   L 117.024,89.568   L 116.256,90.144   L 115.488,90.528   L 114.816,90.336   L 114.048,90.336   L 113.28,90.432   L 112.512,90.816   L 111.936,89.568   L 111.36,88.32   L 111.456,88.032   L 111.36,87.744   L 110.4,87.648   L 109.344,87.936   L 108.576,88.8   L 107.424,89.184   L 107.328,89.472   L 106.848,88.8   L 106.272,88.32   L 105.216,88.704   L 104.64,89.664   L 103.488,90.624   L 102.912,91.872   L 101.568,92.928   L 100.224,93.888   L 98.784,94.752   L 97.248,95.136   L 96.672,95.808   L 96,96.48   L 94.464,96.384   L 93.216,97.056   L 92.256,98.208   L 91.968,99.456   L 91.392,100.512   L 91.104,101.76   L 89.664,101.568   L 88.512,102.048   L 88.032,103.2   L 86.976,104.064   L 86.88,104.544   L 86.976,105.12   L 85.824,104.16   L 84.48,104.256   L 83.136,104.448   L 81.888,103.872   L 80.64,104.544   L 79.2,104.928   L 78.24,104.544   L 77.184,104.832   L 76.8,105.792   L 76.128,106.656   L 75.36,107.328   L 74.496,107.904   L 73.536,107.616   L 72.576,107.808   L 71.808,108.576   L 70.848,109.152   L 69.792,109.536   L 68.64,109.728   L 67.968,110.4   L 67.296,110.976   L 66.432,111.36   L 65.472,111.264   L 64.512,110.688   L 63.456,110.208   L 62.304,109.632   L 60.864,109.632   L 59.616,109.44   L 58.848,108.192   L 57.984,107.808   L 57.216,108   L 56.448,108.096   L 55.776,107.808   L 55.392,107.808   L 55.2,107.616   L 55.008,107.04   L 54.528,106.56   L 53.568,106.464   L 52.704,106.08   L 52.032,105.888   L 51.456,106.56   L 51.36,106.56   L 51.36,105.792   L 51.168,104.928   L 50.112,104.64   L 49.056,104.736   L 48.672,105.408   L 48.576,106.272   L 48.192,105.888   L 48,105.408   L 48.672,104.544   L 49.44,104.16   L 49.632,103.872   L 49.632,103.68   L 48.768,103.392   L 48,103.104   L 47.136,102.816   L 46.368,102.432   L 45.504,103.392   L 45.12,104.736   L 44.64,104.16   L 43.872,103.776   L 43.2,102.912   L 42.144,102.528   L 41.76,103.488   L 40.896,104.16   L 40.512,104.16   L 40.128,103.872   L 40.32,102.912   L 40.128,102.048   L 39.552,101.28   L 38.784,100.704   L 37.248,100.512   L 36,99.36   L 35.232,99.456   L 34.464,99.36   L 33.792,99.264   L 33.12,99.072   L 32.352,99.456   L 31.68,99.36   L 30.912,99.264   L 30.048,99.36   L 28.896,98.784   L 27.648,98.784   L 26.88,98.016   L 26.016,97.632   L 25.536,97.632   L 25.248,97.728   L 24.576,96.864   L 23.52,96.48   L 22.464,96.192   L 21.6,95.52   L 20.832,95.712   L 20.16,96.192   L 20.064,97.536   L 19.104,98.016   L 18.336,96.864   L 18.048,95.52   L 17.184,94.848   L 16.32,94.272   L 15.36,93.984   L 14.4,94.176   L 14.112,94.272   L 13.824,94.272   L 13.632,93.984   L 13.728,93.504   L 13.056,93.024   L 13.056,92.256   L 14.112,91.584   L 15.36,91.104   L 16.224,91.392   L 16.896,91.392   L 17.088,90.528   L 17.568,89.76   L 17.472,88.512   L 17.568,87.36   L 18.336,86.4   L 19.2,85.44   L 20.16,84.576   L 21.12,84   L 20.928,83.424   L 21.12,82.848   L 21.888,82.56   L 22.272,81.888   L 22.56,80.928   L 22.848,80.064   L 23.712,79.488   L 24.672,79.296   L 25.536,79.008   L 25.824,78.144   L 25.152,76.8   L 24.384,75.744   L 24.192,75.456   L 24.288,74.976   L 24.48,74.976   L 24.672,74.976   L 24.96,75.648   L 25.44,76.032   L 26.784,76.032   L 28.128,75.936   L 29.088,74.88   L 30.048,73.632   L 31.008,72.576   L 32.448,72   L 33.216,71.712   L 33.888,71.808   L 34.944,71.808   L 36,71.52   L 36.96,71.52   L 37.728,72.192   L 38.784,72.672   L 39.648,73.344   L 39.456,74.496   L 38.784,75.36   L 38.496,75.744   L 38.016,75.744   L 37.344,75.168   L 36.384,75.264   L 35.52,75.744   L 34.56,75.936   L 33.6,76.224   L 32.928,76.992   L 32.928,78.528   L 33.504,79.776   L 34.656,80.448   L 34.848,81.504   L 35.616,82.272   L 36.288,82.368   L 36.768,82.272   L 37.248,81.024   L 37.632,79.776   L 37.248,78.816   L 36.576,77.856   L 37.92,77.856   L 39.072,78.144   L 39.84,79.2   L 40.8,80.064   L 41.28,80.064   L 41.76,80.256   L 41.472,81.12   L 40.896,81.888   L 40.512,82.656   L 40.704,83.52   L 41.664,84.384   L 42.72,85.44   L 43.872,86.304   L 45.12,86.976   L 45.984,87.168   L 46.848,87.36   L 48.096,88.032   L 49.632,87.744   L 50.4,87.36   L 51.168,87.36   L 52.032,87.648   L 52.896,88.128   L 53.664,88.416   L 54.528,88.032   L 55.488,88.032   L 56.352,88.032   L 57.12,87.936   L 57.888,87.456   L 58.272,86.592   L 58.272,85.632   L 58.272,84.768   L 59.04,84.192   L 60.192,84.384   L 61.248,84.672   L 61.056,85.92   L 60.768,87.072   L 60.48,88.224   L 60,89.184   L 59.808,90.528   L 59.904,91.776   L 59.808,92.64   L 59.712,93.504   L 59.904,94.176   L 60.672,94.656   L 61.824,95.424   L 62.976,96.192   L 63.552,96.192   L 64.128,95.616   L 63.936,95.04   L 63.648,94.56   L 64.608,93.504   L 65.184,92.16   L 65.856,92.064   L 66.24,91.776   L 66.24,91.008   L 66.336,90.144   L 66.528,89.376   L 66.72,88.608   L 67.008,88.224   L 67.488,88.128   L 67.296,88.992   L 67.2,89.76   L 67.392,90.624   L 67.968,91.2   L 68.16,91.584   L 68.448,91.776   L 69.696,90.912   L 70.656,89.76   L 69.792,88.416   L 68.928,87.36   L 69.6,86.592   L 70.56,86.784   L 70.656,87.36   L 70.944,87.648   L 72.096,87.648   L 72.96,88.128   L 73.632,88.224   L 74.304,88.032   L 74.4,87.36   L 74.112,86.784   L 75.072,86.112   L 75.648,85.056   L 74.784,84.672   L 74.016,84.672   L 73.44,85.44   L 73.248,86.304   L 72.864,85.632   L 72.96,84.864   L 73.344,84   L 73.248,82.848   L 73.344,82.08   L 74.4,82.56   L 75.072,82.08   L 75.456,81.216   L 75.744,80.64   L 76.512,80.832   L 76.224,81.6   L 76.128,82.464   L 76.608,82.944   L 77.376,82.944   L 78.144,82.368   L 78.816,81.984   L 79.2,80.928   L 79.776,80.16   L 80.928,80.736   L 81.888,80.256   L 81.888,79.872   L 82.56,80.352   L 83.04,81.12   L 83.328,81.792   L 83.616,82.464   L 84.864,82.368   L 86.112,81.984   L 86.496,81.6   L 86.496,81.12   L 86.208,80.832   L 86.016,80.544   L 86.112,80.352   L 86.4,80.256   L 87.36,81.216   L 88.128,81.984   L 87.936,82.368   L 88.032,82.848   L 88.512,83.136   L 88.896,82.944   L 89.184,82.56   L 89.088,82.176   L 88.416,81.888   L 88.608,81.312   L 88.512,80.736   L 89.856,79.968   L 90.048,78.816   L 90.432,77.28   L 91.584,76.32   L 91.968,76.224   L 92.16,76.416   L 92.064,76.896   L 92.256,77.376   L 93.504,78.624   L 95.04,78.816   L 95.232,77.568   L 95.04,76.128   L 94.944,75.744   L 95.232,75.36   L 96,75.552   L 96.672,75.456   L 97.728,74.208   L 99.072,73.632   L 99.552,74.4   L 100.128,74.976   L 101.376,74.976   L 102.528,74.688   L 103.2,73.536   L 102.912,72.48   L 102.72,72.192   L 103.584,72.384   L 104.448,72.96   L 105.696,72.384   L 106.848,71.616   L 107.04,71.232   L 107.232,70.656   L 107.808,71.136   L 108.576,71.232   L 109.248,70.656   L 109.824,70.464   L 110.88,71.52   L 112.224,72   L 113.184,71.616   L 114.048,71.52   L 114.336,72.096   L 114.816,72.192   L 115.104,71.712   L 115.2,71.232   L 115.872,71.424   L 116.544,71.232   L 116.736,70.56   L 116.544,69.984   L 116.16,69.696   L 115.872,69.216   L 116.64,69.312   L 117.504,69.408   L 118.272,69.216   L 118.944,68.736   L 118.752,67.872   L 119.04,67.2   L 120.576,66.528   L 122.304,66.048   L 124.032,65.76   L 125.76,65.472   L 126.912,65.376   L 127.968,64.992   L 128.448,65.088   L 128.928,65.184   L 130.176,65.184   L 131.424,65.472   L 132.384,64.8   L 133.056,63.936   L 133.536,62.88   L 133.92,61.728   L 134.4,61.536   L 135.072,61.344   L 136.32,60.576   L 136.8,59.328   L 137.28,59.232   L 137.568,58.944   L 136.704,57.984   L 136.224,56.736   L 136.512,55.68   L 137.184,54.816   L 137.376,53.952   L 137.472,53.088   L 137.28,52.32   L 137.088,51.456   L 136.608,51.264   L 136.224,51.072   L 136.896,50.592   L 137.568,50.208   L 138.048,50.88   L 138.816,51.264   L 139.104,50.592   L 138.912,49.92   L 138.912,49.632   L 138.912,49.344   L 139.968,48.96   L 140.64,48.192   L 141.504,46.752   L 142.848,45.984   L 143.04,46.56   L 143.424,46.944   L 143.808,46.848   L 144,46.56   L 143.712,45.792   L 143.616,45.024   L 143.712,44.352   L 143.904,43.68   L 144.384,42.816   L 145.152,42.336   L 146.112,42.048   L 146.976,41.664   L 147.36,40.704   L 147.072,39.744   L 148.032,38.976   L 149.28,38.4   L 150.336,37.728   L 150.912,36.48   L 152.256,36   L 152.928,34.944   L 152.448,34.752   L 151.968,34.56   L 152.064,33.312   L 152.832,32.256   L 153.408,32.064   L 154.176,32.16   L 154.176,33.312   L 154.848,33.984   L 155.616,33.792   L 156.384,33.12   L 156.192,32.064   L 156.288,31.104   L 156.672,30.912   L 157.248,30.816   L 158.4,29.472   L 159.744,28.128   L 161.088,27.744   L 162.144,26.784   L 162.912,26.976   L 163.68,26.88   L 164.544,26.688   L 165.312,26.4   L 165.792,25.536   L 165.888,24.672   L 165.792,23.712   L 165.6,22.848   L 164.448,22.368   L 163.2,21.984   L 162.432,23.232   L 161.472,24.288   L 160.32,24.096   L 159.456,23.52   L 160.128,22.944   L 161.088,22.56   L 161.952,22.176   L 162.624,21.504   L 163.872,21.408   L 164.64,20.544   L 164.448,19.776   L 163.968,19.104   L 163.968,17.856   L 163.584,16.608   L 163.296,16.128   L 163.2,15.456   L 163.968,15.36   L 164.448,14.784   L 164.352,14.016   L 164.352,13.248   L 164.256,12.576   L 163.968,11.808   L 164.64,11.04   L 164.736,9.984   L 164.832,9.024   L 165.504,8.16   L 166.08,7.872   L 166.56,7.104   L 166.944,7.68   L 167.424,8.256   L 168.768,7.872   L 169.728,6.816   L 170.496,6.432   L 171.264,5.952   L 172.032,5.568   L 172.896,5.184   L 173.472,4.608   L 174.24,4.32   L 174.624,4.8   L 175.2,5.088   L 175.776,4.032   L 176.544,2.976   L 177.408,3.072   L 178.272,2.784   L 179.136,1.44   L 180.288,1.632  z "
     id="path1" />
  <path
     style="fill:#000000;fill-rule:evenodd;fill-opacity:1;stroke:none;"
     d="  M 108.288,23.808   L 108.384,23.52   L 109.056,24   L 109.728,23.904   L 110.496,23.712   L 111.072,23.52   L 111.648,23.904   L 112.224,24.288   L 112.512,24.864   L 112.704,25.536   L 112.704,25.824   L 112.704,26.208   L 112.512,26.592   L 112.224,26.784   L 110.784,26.016   L 110.208,26.112   L 109.728,26.112   L 109.152,26.304   L 108.768,26.688   L 108.192,26.88   L 107.712,27.168   L 107.232,27.456   L 106.656,27.456   L 106.368,27.936   L 106.272,28.416   L 106.272,28.896   L 106.272,29.376   L 106.56,29.856   L 106.752,30.432   L 106.944,31.104   L 107.136,31.68   L 107.424,32.256   L 107.808,32.64   L 108.384,32.832   L 109.056,32.736   L 109.248,32.928   L 109.44,33.216   L 109.536,33.408   L 109.824,33.408   L 110.016,33.024   L 110.112,32.736   L 110.304,32.544   L 110.688,32.448   L 111.072,32.448   L 111.168,32.832   L 111.168,33.216   L 111.168,33.6   L 111.456,33.984   L 111.84,34.272   L 112.224,34.656   L 112.608,34.848   L 113.088,35.136   L 113.472,35.232   L 114.048,35.328   L 114.528,35.232   L 114.72,35.424   L 114.624,35.712   L 114.528,36   L 114.528,36.192   L 115.008,36.48   L 115.488,36.864   L 115.968,37.152   L 116.448,37.344   L 116.448,38.016   L 116.448,38.688   L 116.544,39.456   L 116.928,40.032   L 117.024,40.608   L 117.216,41.184   L 117.504,41.568   L 117.984,41.856   L 117.888,42.528   L 117.984,43.104   L 118.272,43.68   L 118.56,44.16   L 119.04,44.352   L 119.232,44.736   L 119.52,45.216   L 119.904,45.504   L 119.808,46.08   L 119.712,46.56   L 119.616,47.04   L 119.712,47.52   L 119.712,48   L 119.904,48.48   L 120.192,48.96   L 120.576,49.344   L 120.288,49.728   L 120.096,50.208   L 119.904,50.688   L 119.808,51.168   L 119.616,51.648   L 119.424,52.032   L 119.136,52.416   L 118.656,52.704   L 117.984,53.376   L 117.504,54.048   L 116.928,54.72   L 116.256,55.2   L 116.16,55.488   L 115.872,55.776   L 115.584,55.872   L 115.2,55.872   L 114.816,55.776   L 114.432,55.872   L 114.048,55.968   L 113.664,56.16   L 113.376,56.448   L 112.992,56.64   L 112.608,56.736   L 112.128,56.736   L 111.648,56.832   L 111.072,57.024   L 110.688,57.312   L 110.208,57.504   L 109.728,57.792   L 109.152,57.888   L 108.576,57.792   L 108,57.504   L 107.328,57.6   L 106.944,57.984   L 106.56,58.368   L 105.888,58.272   L 105.888,57.792   L 106.176,57.312   L 106.656,56.928   L 107.04,56.544   L 107.424,56.256   L 107.52,55.872   L 107.424,55.488   L 106.848,55.008   L 106.368,55.008   L 106.08,55.104   L 105.792,55.392   L 105.504,55.68   L 105.504,55.776   L 105.504,55.872   L 105.408,55.968   L 105.312,56.064   L 105.12,55.872   L 104.832,55.68   L 104.544,55.584   L 104.256,55.68   L 103.968,55.776   L 103.968,56.064   L 103.968,56.256   L 103.968,56.544   L 104.448,56.928   L 104.64,57.408   L 104.64,57.984   L 104.64,58.56   L 104.544,58.752   L 104.352,58.752   L 104.064,58.656   L 103.872,58.656   L 103.584,59.232   L 103.2,59.616   L 102.72,59.904   L 102.24,60.288   L 101.952,60.192   L 101.664,60.384   L 101.376,60.48   L 101.088,60.48   L 100.992,59.904   L 100.992,59.328   L 100.896,58.752   L 100.512,58.272   L 100.032,58.272   L 100.32,58.08   L 100.512,57.792   L 100.608,57.504   L 100.704,57.12   L 100.32,56.448   L 100.32,55.488   L 100.224,54.72   L 99.36,54.432   L 99.168,54.816   L 98.976,55.296   L 98.88,55.68   L 98.784,56.064   L 98.688,56.544   L 98.592,56.928   L 98.496,57.408   L 98.4,57.792   L 98.496,58.08   L 98.688,58.272   L 98.88,58.464   L 99.168,58.56   L 98.976,58.944   L 98.88,59.328   L 98.688,59.616   L 98.4,59.808   L 98.016,59.712   L 97.728,59.424   L 97.536,59.136   L 97.248,58.848   L 96.672,58.368   L 96,57.984   L 95.328,57.696   L 94.848,57.12   L 94.272,57.024   L 93.792,56.928   L 93.312,56.832   L 92.832,56.64   L 92.352,56.544   L 91.968,56.352   L 91.584,56.064   L 91.2,55.68   L 91.104,55.2   L 90.816,54.912   L 90.432,54.624   L 90.144,54.336   L 89.76,54.24   L 89.376,54.336   L 88.992,54.24   L 88.8,53.76   L 89.376,53.376   L 89.664,52.8   L 89.76,52.128   L 90.048,51.456   L 89.76,50.976   L 89.664,50.592   L 89.76,50.112   L 89.856,49.632   L 90.048,49.248   L 90.144,48.768   L 90.048,48.384   L 89.76,47.904   L 89.664,47.328   L 89.472,46.848   L 89.184,46.464   L 88.896,46.08   L 88.512,45.696   L 88.224,45.216   L 88.032,44.736   L 88.032,44.16   L 87.648,43.584   L 86.976,43.104   L 86.304,42.528   L 85.824,41.856   L 85.344,41.568   L 84.864,41.472   L 84.48,41.28   L 84.576,40.608   L 84.96,40.32   L 85.344,40.032   L 85.536,39.744   L 85.824,39.36   L 86.016,38.976   L 86.208,38.496   L 86.496,38.112   L 86.688,37.728   L 87.264,37.824   L 87.84,38.016   L 88.416,38.016   L 88.8,37.536   L 88.8,37.056   L 88.992,36.768   L 89.376,36.576   L 89.76,36.48   L 90.24,36.576   L 90.72,36.576   L 91.2,36.672   L 91.776,36.672   L 91.968,36.864   L 92.16,37.056   L 92.352,37.152   L 92.64,36.96   L 92.928,36.768   L 92.928,36.576   L 92.928,36.384   L 92.832,36.192   L 92.64,35.904   L 92.352,35.808   L 92.16,35.904   L 91.872,35.808   L 91.68,35.232   L 91.392,34.848   L 91.104,34.368   L 91.2,33.888   L 91.776,33.504   L 92.256,33.12   L 92.832,32.736   L 93.504,32.544   L 93.984,32.448   L 94.464,32.64   L 94.944,33.024   L 95.424,33.216   L 96.096,33.312   L 96.768,33.216   L 97.344,33.024   L 97.824,32.736   L 97.92,33.216   L 98.208,33.696   L 98.496,34.176   L 98.496,34.656   L 98.688,34.848   L 98.976,35.04   L 99.168,35.232   L 99.456,35.232   L 99.744,34.848   L 99.84,34.272   L 99.84,33.792   L 100.224,33.408   L 100.32,33.024   L 100.416,32.544   L 100.608,32.16   L 100.896,31.776   L 101.088,31.392   L 101.472,31.008   L 101.76,30.72   L 102.144,30.432   L 102.24,29.856   L 102.432,29.184   L 102.528,28.608   L 102.24,28.032   L 102.336,27.552   L 102.528,27.168   L 102.816,26.88   L 103.2,26.592   L 103.68,26.88   L 104.064,27.264   L 104.544,27.552   L 105.216,27.456   L 105.6,27.168   L 105.984,26.88   L 106.464,26.592   L 106.848,26.208   L 107.04,26.4   L 107.328,26.688   L 107.712,26.784   L 108,26.4   L 107.904,25.92   L 107.616,25.44   L 107.424,25.056   L 107.616,24.48   L 107.52,24.288   L 107.424,24.096   L 107.328,24   L 107.424,23.808   L 107.712,23.52   L 107.904,23.616   L 108,23.712   L 108.096,23.808   L 108.288,23.808  z "
     id="path2" />
  <path
     style="fill:#ffffff;fill-rule:evenodd;fill-opacity:1;stroke:none;"
     d="  M 145.44,59.904   L 145.44,60.288   L 145.44,60.768   L 145.44,61.152   L 145.44,61.632   L 145.536,62.016   L 145.632,62.4   L 145.824,62.688   L 146.112,63.072   L 146.112,63.36   L 146.112,63.744   L 146.016,64.128   L 145.728,64.32   L 144.96,63.936   L 144.288,63.456   L 143.808,62.784   L 143.328,62.016   L 143.232,61.44   L 143.04,60.864   L 143.04,60.288   L 143.232,59.808   L 143.808,59.424   L 144.384,59.232   L 144.96,59.328   L 145.44,59.904  z "
     id="path3" />
  <path
     style="fill:#ffffff;fill-rule:evenodd;fill-opacity:1;stroke:none;"
     d="  M 142.368,105.12   L 142.272,105.408   L 142.176,105.696   L 141.984,105.984   L 141.888,106.272   L 141.888,107.04   L 141.888,107.712   L 141.984,108.384   L 142.368,108.864   L 142.848,108.96   L 143.328,108.96   L 143.808,108.96   L 144.288,108.96   L 144.768,108.864   L 145.248,108.768   L 145.728,108.576   L 146.112,108.288   L 146.4,107.808   L 146.784,107.424   L 147.168,107.136   L 147.648,106.848   L 148.128,106.656   L 148.704,106.56   L 149.28,106.464   L 149.76,106.464   L 150.048,106.464   L 150.24,106.656   L 150.432,106.848   L 150.528,107.136   L 150.432,107.424   L 150.432,107.712   L 150.432,108   L 150.624,108.192   L 151.296,108.192   L 151.584,108.576   L 151.872,109.056   L 152.16,109.248   L 152.352,108.96   L 152.544,108.576   L 152.64,108.288   L 152.928,108   L 153.504,108   L 153.888,108.288   L 154.368,108.48   L 154.848,108.288   L 155.232,107.808   L 155.712,107.712   L 156.288,107.808   L 156.96,108   L 157.44,108.672   L 158.016,108.96   L 158.784,109.152   L 159.36,109.632   L 159.84,109.728   L 160.416,109.824   L 160.8,110.112   L 161.184,110.4   L 160.8,111.072   L 160.224,111.648   L 159.84,112.224   L 159.744,112.992   L 159.456,113.28   L 159.168,113.568   L 158.976,113.952   L 158.976,114.336   L 159.168,114.24   L 159.456,114.144   L 159.648,114.048   L 159.84,114.336   L 159.648,114.816   L 159.264,115.392   L 158.88,115.776   L 158.4,116.16   L 157.728,116.16   L 157.248,116.544   L 156.672,117.024   L 156.096,117.408   L 156.192,117.6   L 156.384,117.792   L 156.48,118.08   L 156.384,118.464   L 155.712,118.368   L 155.04,117.984   L 154.368,117.504   L 153.696,117.12   L 153.312,116.736   L 152.832,116.736   L 152.352,117.024   L 151.872,117.216   L 151.68,117.6   L 151.488,117.984   L 151.296,118.368   L 150.816,118.464   L 149.76,118.464   L 149.472,118.944   L 149.088,119.52   L 148.8,120   L 148.416,120.48   L 147.936,120.864   L 147.456,121.152   L 146.976,121.344   L 146.304,121.344   L 145.92,121.536   L 145.536,121.536   L 145.152,121.536   L 144.768,121.536   L 144.384,121.536   L 144,121.632   L 143.616,121.728   L 143.328,122.016   L 142.944,122.016   L 142.656,122.208   L 142.368,122.4   L 142.176,122.688   L 142.176,122.784   L 142.272,122.976   L 142.272,123.072   L 142.272,123.264   L 142.56,123.168   L 142.752,122.976   L 142.944,122.88   L 143.232,122.976   L 143.232,123.552   L 142.944,123.936   L 142.656,124.32   L 142.656,124.8   L 142.368,125.376   L 141.984,125.664   L 141.408,126.048   L 140.928,126.336   L 140.832,126.336   L 140.736,126.336   L 140.544,126.24   L 140.448,126.048   L 140.64,125.376   L 140.352,125.376   L 140.16,125.28   L 139.968,125.184   L 139.776,124.992   L 139.776,124.704   L 139.776,124.416   L 139.68,124.128   L 139.488,123.936   L 139.008,124.032   L 138.432,124.224   L 137.856,124.224   L 137.376,123.936   L 136.896,123.936   L 136.512,124.128   L 136.224,124.32   L 136.032,124.608   L 135.84,124.992   L 135.648,125.376   L 135.456,125.664   L 134.976,125.76   L 134.784,125.664   L 134.592,125.568   L 134.304,125.376   L 134.112,125.184   L 133.632,125.28   L 133.248,125.376   L 132.768,125.376   L 132.384,125.088   L 132.288,124.896   L 132.288,124.704   L 132.192,124.512   L 132.096,124.32   L 131.616,123.936   L 131.136,123.648   L 130.656,123.36   L 130.176,123.168   L 129.6,122.976   L 129.024,122.976   L 128.448,122.88   L 127.776,122.976   L 127.392,123.264   L 126.912,123.648   L 126.432,123.84   L 125.856,123.744   L 125.472,123.264   L 125.088,122.688   L 124.608,122.304   L 124.128,121.92   L 123.648,121.728   L 123.168,121.728   L 122.688,121.824   L 122.208,121.92   L 121.824,122.016   L 121.344,122.112   L 120.768,122.112   L 120.288,121.92   L 119.712,122.208   L 119.136,122.112   L 118.656,122.208   L 118.56,122.784   L 118.368,123.168   L 118.176,123.456   L 117.888,123.744   L 117.6,123.936   L 117.312,123.936   L 117.12,123.744   L 116.928,123.552   L 116.832,123.264   L 116.928,122.784   L 117.024,122.304   L 117.312,121.92   L 117.6,121.536   L 117.792,120.864   L 117.984,120.192   L 118.368,119.616   L 118.944,119.136   L 119.52,119.136   L 120,119.424   L 120.48,119.52   L 120.96,119.136   L 121.248,118.656   L 121.152,118.176   L 121.056,117.696   L 121.344,117.216   L 121.152,116.832   L 120.96,116.352   L 120.864,115.968   L 121.056,115.488   L 120.96,114.816   L 121.152,114.336   L 121.536,113.856   L 122.016,113.472   L 122.208,113.376   L 122.496,113.28   L 122.784,113.184   L 123.072,113.184   L 123.264,113.568   L 123.456,113.952   L 123.456,114.432   L 123.456,114.816   L 123.072,115.296   L 122.688,115.776   L 122.496,116.256   L 122.496,116.832   L 122.496,117.312   L 122.592,117.696   L 122.88,117.984   L 123.36,118.176   L 124.032,118.176   L 124.704,118.272   L 125.376,118.464   L 126.048,118.464   L 126.24,118.368   L 126.432,118.368   L 126.72,118.56   L 126.816,118.656   L 126.816,118.944   L 126.912,119.232   L 127.008,119.328   L 127.2,119.52   L 127.584,119.424   L 127.968,119.424   L 128.352,119.424   L 128.832,119.424   L 129.216,119.424   L 129.6,119.328   L 129.984,119.328   L 130.368,119.136   L 130.56,118.56   L 130.752,117.984   L 131.04,117.408   L 131.424,116.928   L 131.808,116.448   L 132.192,115.968   L 132.672,115.488   L 133.056,115.008   L 132.96,114.624   L 132.96,114.24   L 132.96,113.856   L 133.056,113.472   L 133.152,113.088   L 133.248,112.704   L 133.248,112.32   L 133.248,111.936   L 133.344,111.36   L 133.44,110.784   L 133.536,110.208   L 133.632,109.632   L 134.016,109.248   L 134.304,108.864   L 134.592,108.48   L 134.88,108   L 135.168,107.616   L 135.552,107.232   L 136.032,107.04   L 136.512,106.944   L 136.992,106.656   L 137.568,106.56   L 137.952,106.272   L 138.24,105.888   L 138.624,105.888   L 139.008,105.984   L 139.392,106.176   L 139.488,106.56   L 139.488,106.272   L 139.584,105.984   L 139.776,105.792   L 140.16,105.792   L 140.448,105.888   L 140.64,105.888   L 140.928,105.792   L 141.12,105.6   L 141.024,105.312   L 141.12,105.024   L 141.312,104.736   L 141.6,104.544   L 141.984,104.544   L 142.176,104.64   L 142.272,104.928   L 142.368,105.12  z "
     id="path4" />
  <path
     style="fill:#ffffff;fill-rule:evenodd;fill-opacity:1;stroke:none;"
     d="  M 145.056,128.832   L 145.056,129.6   L 145.344,130.368   L 145.44,131.04   L 144.768,131.52   L 144.768,131.712   L 144.864,131.808   L 145.056,131.904   L 145.248,131.904   L 145.728,131.712   L 146.304,131.52   L 146.784,131.328   L 147.168,130.944   L 147.648,131.232   L 148.224,131.52   L 148.8,131.616   L 149.376,131.328   L 149.76,130.656   L 150.336,130.08   L 150.912,129.696   L 151.776,129.408   L 151.872,129.12   L 152.064,128.928   L 152.256,128.832   L 152.544,128.832   L 152.736,129.216   L 152.832,129.696   L 152.736,130.08   L 152.64,130.56   L 152.64,130.656   L 152.64,130.752   L 152.64,130.848   L 152.64,130.944   L 152.928,131.232   L 152.736,131.328   L 152.544,131.424   L 152.352,131.52   L 152.256,131.808   L 152.256,132.384   L 152.256,132.96   L 152.16,133.536   L 152.16,134.016   L 152.16,134.592   L 152.064,135.168   L 151.968,135.744   L 151.776,136.32   L 151.488,136.8   L 151.008,137.088   L 150.528,137.28   L 150.048,137.568   L 149.664,137.568   L 149.568,137.76   L 149.472,138.048   L 149.376,138.336   L 149.376,138.624   L 149.472,138.816   L 149.76,138.912   L 150.048,138.912   L 150.144,138.816   L 150.336,138.912   L 150.432,139.104   L 150.528,139.296   L 150.048,139.872   L 149.472,140.448   L 149.088,141.12   L 149.088,141.888   L 148.512,142.656   L 148.128,143.52   L 147.552,144.192   L 146.688,144.576   L 146.208,144.96   L 146.016,145.536   L 145.824,146.208   L 145.632,146.784   L 145.44,147.264   L 145.152,147.648   L 144.768,147.84   L 144.384,147.936   L 143.904,148.032   L 143.424,148.128   L 142.944,148.224   L 142.56,148.32   L 141.312,149.376   L 140.832,149.376   L 140.256,149.28   L 139.776,149.088   L 139.296,148.896   L 138.816,148.8   L 138.336,148.8   L 137.856,148.896   L 137.376,149.28   L 136.896,149.376   L 136.416,149.472   L 136.032,149.568   L 135.648,149.568   L 135.36,149.184   L 135.264,148.704   L 135.168,148.224   L 134.688,148.032   L 134.304,148.128   L 134.016,148.032   L 133.728,147.936   L 133.44,147.84   L 133.44,148.416   L 133.248,149.088   L 133.056,149.76   L 132.768,150.336   L 132.096,150.72   L 131.52,151.2   L 131.136,151.776   L 130.848,152.448   L 130.56,152.736   L 130.176,153.024   L 129.792,153.216   L 129.408,153.408   L 129.024,153.504   L 128.64,153.504   L 128.16,153.408   L 127.776,153.312   L 127.296,152.736   L 126.72,152.256   L 126.048,151.968   L 125.184,152.064   L 124.608,151.872   L 123.936,151.584   L 123.36,151.2   L 122.976,150.624   L 122.976,150.336   L 123.072,150.048   L 123.264,149.76   L 123.456,149.568   L 123.936,149.664   L 124.416,149.76   L 124.8,149.76   L 125.184,149.568   L 124.992,149.088   L 124.992,148.512   L 124.8,148.224   L 124.128,148.32   L 123.84,148.416   L 123.552,148.32   L 123.264,148.224   L 122.976,148.032   L 122.688,147.456   L 122.688,146.784   L 122.88,146.112   L 123.072,145.536   L 123.744,145.344   L 124.416,144.864   L 124.896,144.384   L 125.472,144.192   L 125.856,143.808   L 125.28,143.328   L 125.184,142.56   L 124.992,141.792   L 124.512,141.312   L 124.224,141.12   L 124.032,140.928   L 123.936,140.64   L 123.84,140.352   L 123.84,140.064   L 123.936,139.68   L 124.128,139.296   L 124.416,139.008   L 124.8,139.2   L 125.28,139.392   L 125.76,139.584   L 126.24,139.776   L 126.624,139.968   L 127.008,140.256   L 127.296,140.544   L 127.488,141.024   L 127.776,141.312   L 128.16,141.312   L 128.544,141.216   L 128.832,141.12   L 129.504,140.64   L 130.272,140.16   L 131.136,139.68   L 131.904,139.296   L 132.768,138.816   L 133.536,138.336   L 134.304,137.76   L 134.976,137.088   L 135.264,136.608   L 135.552,136.128   L 135.744,135.552   L 135.744,134.784   L 135.936,134.592   L 136.224,134.496   L 136.512,134.496   L 136.8,134.592   L 137.376,134.784   L 138.048,134.688   L 138.624,134.592   L 139.296,134.592   L 139.776,134.304   L 140.256,133.92   L 140.736,133.728   L 141.312,133.632   L 141.504,133.824   L 141.792,134.016   L 142.176,134.112   L 142.56,134.016   L 142.944,133.632   L 143.136,133.152   L 143.424,132.672   L 144,132.576   L 143.904,132.192   L 144,131.808   L 144.096,131.424   L 144.288,131.04   L 144.384,130.656   L 144.384,130.272   L 144.192,129.888   L 143.904,129.504   L 143.808,129.216   L 143.712,128.832   L 143.808,128.64   L 144.096,128.448   L 144.384,128.448   L 144.672,128.544   L 144.864,128.736   L 145.056,128.832  z "
     id="path5" />
  <path
     style="fill:#ffffff;fill-rule:evenodd;fill-opacity:1;stroke:none;"
     d="  M 120,140.064   L 120.096,140.736   L 120.384,141.312   L 120.768,141.888   L 121.248,142.368   L 121.056,143.04   L 121.248,143.616   L 121.344,144.288   L 121.248,144.864   L 121.632,145.344   L 121.824,145.92   L 121.824,146.4   L 121.728,146.976   L 121.632,147.552   L 121.536,148.128   L 121.44,148.704   L 121.632,149.376   L 121.344,149.856   L 120.96,150.144   L 120.576,150.432   L 120.288,150.624   L 120,150.528   L 119.712,150.432   L 119.424,150.24   L 119.328,149.952   L 119.328,149.472   L 118.944,149.184   L 118.656,148.992   L 118.848,148.512   L 119.136,148.032   L 119.328,147.456   L 119.712,147.072   L 120.288,146.976   L 120.288,146.496   L 120.096,146.016   L 119.904,145.536   L 119.904,144.96   L 119.712,144.672   L 119.52,144.288   L 119.232,143.904   L 118.944,143.712   L 118.56,143.808   L 118.176,143.808   L 117.792,143.808   L 117.504,143.52   L 117.216,143.136   L 117.024,142.752   L 116.928,142.272   L 116.928,141.792   L 117.024,141.408   L 117.024,140.928   L 117.216,140.448   L 117.312,140.064   L 117.408,139.68   L 117.792,139.488   L 118.176,139.488   L 118.56,139.296   L 119.04,139.296   L 119.52,139.392   L 119.808,139.68   L 120,140.064  z "
     id="path6" />
  <path
     style="fill:#ffffff;fill-rule:evenodd;fill-opacity:1;stroke:none;"
     d="  M 157.056,155.712   L 157.536,155.712   L 158.016,155.904   L 158.4,156.192   L 158.688,156.48   L 158.784,156.288   L 158.976,156   L 159.168,155.808   L 159.456,155.712   L 159.936,155.808   L 160.224,156.096   L 160.512,156.48   L 160.8,156.864   L 160.8,157.536   L 160.896,158.208   L 160.992,158.784   L 161.184,159.36   L 161.472,159.936   L 161.856,160.512   L 162.144,160.992   L 162.432,161.664   L 162.432,162.24   L 162.624,162.72   L 162.912,163.296   L 163.2,163.872   L 163.488,164.448   L 163.488,165.024   L 163.296,165.504   L 162.816,166.08   L 162.528,166.656   L 162.336,167.328   L 162.24,168   L 162.144,168.576   L 161.376,169.152   L 160.992,170.016   L 160.512,170.784   L 159.744,171.168   L 159.648,171.36   L 159.456,171.456   L 159.264,171.648   L 159.168,171.84   L 159.264,172.224   L 159.36,172.704   L 159.456,173.088   L 159.36,173.568   L 159.072,173.664   L 158.784,173.76   L 158.4,173.856   L 158.112,173.952   L 157.92,173.568   L 157.728,173.184   L 157.536,172.8   L 157.344,172.416   L 157.248,172.032   L 157.152,171.648   L 157.152,171.264   L 157.344,170.88   L 157.248,170.688   L 157.248,170.496   L 157.248,170.304   L 157.056,170.208   L 156.768,170.4   L 156.48,170.688   L 156.096,170.784   L 155.616,170.88   L 155.424,171.072   L 155.328,171.168   L 155.232,171.264   L 155.232,171.36   L 155.424,171.84   L 155.712,172.32   L 156,172.8   L 155.904,173.376   L 155.328,173.568   L 154.944,173.184   L 154.56,172.704   L 154.176,172.32   L 153.792,172.128   L 153.408,171.84   L 153.024,171.648   L 152.64,171.552   L 152.448,172.128   L 152.352,172.8   L 152.352,173.376   L 152.256,173.952   L 151.68,174.144   L 151.2,174.528   L 150.624,174.816   L 150.048,174.912   L 149.568,174.72   L 149.088,174.432   L 148.704,174.048   L 148.512,173.664   L 148.512,173.184   L 148.32,172.8   L 147.936,172.512   L 147.552,172.224   L 147.264,172.032   L 147.072,171.744   L 147.168,171.36   L 147.648,170.976   L 147.744,170.784   L 147.744,170.496   L 147.648,170.304   L 147.36,170.112   L 146.976,170.208   L 146.592,170.304   L 146.208,170.4   L 145.92,170.592   L 146.016,171.36   L 146.208,172.032   L 146.208,172.704   L 146.016,173.376   L 146.208,173.664   L 146.688,173.856   L 147.072,174.048   L 146.976,174.624   L 146.496,175.008   L 145.92,175.296   L 145.344,175.488   L 144.768,175.68   L 144.192,175.776   L 143.616,175.968   L 143.04,176.256   L 142.56,176.64   L 141.984,176.352   L 141.216,176.16   L 140.64,175.776   L 140.448,175.104   L 140.448,174.432   L 140.832,173.76   L 141.024,173.184   L 140.928,172.512   L 141.024,172.128   L 141.312,171.744   L 141.504,171.456   L 141.504,170.976   L 141.216,170.976   L 141.024,171.168   L 141.024,171.456   L 140.832,171.648   L 140.448,171.936   L 139.968,172.128   L 139.488,172.224   L 139.296,172.704   L 139.296,173.184   L 139.2,173.76   L 139.008,174.048   L 138.624,174.24   L 137.952,174.24   L 137.376,174.528   L 136.8,174.624   L 136.416,174.048   L 135.744,174.048   L 135.072,174.048   L 134.4,173.856   L 133.92,173.376   L 133.632,173.856   L 133.344,174.336   L 132.864,174.624   L 132.48,174.912   L 132,175.2   L 131.52,175.392   L 131.04,175.68   L 130.56,175.968   L 130.08,175.968   L 129.696,175.68   L 129.312,175.392   L 129.024,175.104   L 128.64,174.816   L 128.352,174.72   L 127.968,174.912   L 127.584,175.392   L 127.008,175.584   L 126.432,175.68   L 126.048,175.968   L 125.856,176.448   L 125.76,176.928   L 125.664,177.312   L 125.472,177.696   L 125.184,177.984   L 124.896,178.368   L 124.608,178.656   L 124.32,179.04   L 124.128,179.424   L 123.744,179.52   L 123.36,179.616   L 123.072,179.808   L 122.688,180   L 122.4,180.192   L 122.016,180.384   L 121.632,180.576   L 121.248,180.576   L 120.864,180.864   L 120.48,181.248   L 120.192,181.632   L 119.712,181.824   L 119.232,181.536   L 118.752,181.536   L 118.176,181.728   L 117.696,182.112   L 117.408,182.784   L 116.832,183.264   L 116.256,183.84   L 115.968,184.512   L 115.872,184.512   L 115.776,184.608   L 115.68,184.608   L 115.584,184.512   L 115.488,184.224   L 115.488,183.744   L 115.392,183.36   L 114.912,183.168   L 114.336,183.264   L 113.76,183.456   L 113.184,183.552   L 112.512,183.264   L 112.224,182.496   L 111.648,181.92   L 110.88,181.44   L 110.112,181.152   L 109.92,180.768   L 109.728,180.288   L 109.536,179.808   L 109.536,179.328   L 109.44,178.848   L 109.536,178.368   L 109.536,177.888   L 109.728,177.504   L 109.632,177.024   L 109.632,176.544   L 109.824,176.16   L 110.016,175.68   L 109.92,175.2   L 109.824,174.72   L 109.824,174.144   L 109.824,173.664   L 109.92,173.184   L 110.016,172.8   L 110.208,172.32   L 110.4,171.936   L 110.4,171.264   L 110.496,170.688   L 110.784,170.208   L 111.168,169.728   L 111.648,169.248   L 112.128,168.864   L 112.704,168.48   L 113.184,168.096   L 113.28,167.712   L 113.568,167.328   L 113.856,166.944   L 114.24,166.56   L 114.528,166.176   L 114.72,165.792   L 114.816,165.312   L 114.72,164.832   L 114.816,164.544   L 115.008,164.448   L 115.2,164.256   L 115.488,164.064   L 115.872,164.16   L 116.256,164.256   L 116.544,164.256   L 116.64,163.776   L 116.832,163.584   L 117.12,163.488   L 117.408,163.488   L 117.6,163.584   L 118.08,164.16   L 118.464,164.736   L 118.848,165.216   L 119.424,165.504   L 119.712,166.08   L 119.616,166.656   L 119.616,167.136   L 120.096,167.52   L 120.576,167.424   L 120.96,167.328   L 121.44,167.232   L 121.824,167.136   L 122.304,167.04   L 122.688,167.04   L 123.168,166.944   L 123.648,166.848   L 124.128,166.464   L 124.512,165.888   L 124.896,165.408   L 125.184,164.832   L 125.568,164.256   L 125.856,163.776   L 126.24,163.2   L 126.72,162.72   L 127.104,162.624   L 127.584,162.624   L 127.968,162.72   L 128.448,162.624   L 128.736,162.048   L 128.64,161.376   L 128.544,160.896   L 129.312,160.896   L 129.504,161.184   L 129.6,161.472   L 129.888,161.76   L 130.176,161.952   L 130.176,161.76   L 130.272,161.472   L 130.368,161.28   L 130.56,161.088   L 130.848,161.088   L 131.04,161.184   L 131.136,161.376   L 131.232,161.568   L 131.232,161.76   L 131.136,161.952   L 130.944,162.144   L 130.848,162.24   L 130.272,162.048   L 130.56,162.816   L 131.232,163.488   L 131.904,163.968   L 132.576,164.64   L 133.056,164.544   L 133.344,164.832   L 133.728,165.024   L 134.304,165.024   L 134.112,164.736   L 134.208,164.736   L 134.304,164.736   L 134.304,164.736   L 134.4,164.736   L 134.496,164.736   L 134.592,164.544   L 134.496,164.352   L 134.4,164.16   L 134.208,164.064   L 133.92,164.064   L 133.632,164.16   L 133.344,164.16   L 133.056,163.872   L 132.576,163.68   L 132.288,163.488   L 132.096,163.104   L 132.288,162.912   L 132.384,162.624   L 132.48,162.432   L 132.672,162.24   L 133.248,162.24   L 133.728,162.24   L 134.208,162.048   L 134.688,161.664   L 134.88,161.376   L 135.072,161.184   L 135.264,160.992   L 135.648,160.992   L 136.32,160.896   L 136.704,160.32   L 137.088,159.744   L 137.76,159.36   L 138.24,158.784   L 138.528,158.112   L 139.008,157.632   L 139.776,157.536   L 139.968,157.92   L 140.16,158.304   L 140.352,158.688   L 140.544,159.072   L 140.64,159.456   L 140.736,159.84   L 140.832,160.32   L 140.928,160.704   L 140.832,161.28   L 140.544,161.856   L 140.352,162.432   L 140.64,162.912   L 141.12,163.008   L 141.504,162.624   L 141.888,162.24   L 142.368,162.048   L 142.656,161.76   L 142.656,161.28   L 142.656,160.896   L 142.944,160.608   L 143.52,160.608   L 144,160.608   L 144.48,160.512   L 144.96,160.416   L 145.44,160.224   L 145.92,160.032   L 146.304,159.648   L 146.688,159.264   L 147.072,158.784   L 147.648,158.4   L 148.224,158.112   L 148.8,157.824   L 149.184,157.92   L 149.568,157.728   L 149.952,157.536   L 150.24,157.344   L 150.528,157.056   L 150.912,156.864   L 151.296,156.864   L 151.776,156.96   L 151.968,157.536   L 152.256,158.016   L 152.448,158.592   L 152.928,158.88   L 153.312,158.688   L 153.6,158.4   L 153.792,158.016   L 153.984,157.536   L 153.984,156.96   L 153.792,156.384   L 153.792,155.808   L 154.176,155.424   L 154.56,155.52   L 154.944,155.712   L 155.328,156   L 155.712,156.192   L 156.096,156.384   L 156.384,156.384   L 156.768,156.192   L 157.056,155.712  z "
     id="path7" />
  <path
     style="fill:#ffffff;fill-rule:evenodd;fill-opacity:1;stroke:none;"
     d="  M 111.168,183.648   L 111.456,183.936   L 111.456,184.224   L 111.36,184.608   L 111.168,184.896   L 110.88,185.184   L 110.496,185.376   L 110.208,185.568   L 110.112,185.952   L 109.44,186.048   L 108.576,186.24   L 107.808,186.24   L 107.328,185.664   L 107.616,184.992   L 107.904,184.128   L 108.192,183.456   L 108.96,183.168   L 109.536,183.168   L 110.112,183.36   L 110.592,183.648   L 111.168,183.648  z "
     id="path8" />
  <path
     style="fill:#ffffff;fill-rule:evenodd;fill-opacity:1;stroke:none;"
     d="  M 110.688,187.584   L 110.88,187.68   L 110.88,187.968   L 110.88,188.16   L 110.784,188.448   L 110.688,188.64   L 110.496,188.832   L 110.304,189.12   L 110.4,189.312   L 110.496,189.216   L 110.784,189.12   L 110.976,189.12   L 111.168,189.312   L 111.264,189.408   L 111.36,189.6   L 111.456,189.696   L 111.456,189.888   L 111.168,190.176   L 110.88,190.368   L 110.496,190.464   L 110.112,190.464   L 109.536,191.136   L 108.96,191.808   L 108.48,192.48   L 108,193.248   L 107.808,193.44   L 107.616,193.344   L 107.424,193.152   L 107.232,192.96   L 106.848,192.384   L 106.944,191.712   L 107.232,190.944   L 107.328,190.176   L 107.52,189.888   L 107.424,189.408   L 107.424,189.024   L 107.712,188.736   L 108.288,188.832   L 108.672,188.736   L 108.96,188.352   L 109.248,187.968   L 109.44,187.584   L 109.728,187.296   L 110.112,187.296   L 110.688,187.584  z "
     id="path9" />
  <path
     style="fill:#ffffff;fill-rule:evenodd;fill-opacity:1;stroke:none;"
     d="  M 112.416,192.384   L 112.8,192.96   L 113.28,193.44   L 113.568,194.016   L 113.376,194.784   L 112.8,195.456   L 112.224,196.032   L 111.456,196.608   L 110.784,196.992   L 110.592,197.184   L 110.496,197.376   L 110.496,197.568   L 110.496,197.76   L 110.688,198.144   L 110.976,198.24   L 111.264,198.336   L 111.648,198.24   L 111.648,198.144   L 111.744,198.24   L 111.744,198.336   L 111.744,198.432   L 111.552,199.104   L 111.168,199.68   L 110.688,200.16   L 110.4,200.736   L 109.824,201.12   L 109.344,201.792   L 108.864,202.368   L 108.096,202.464   L 107.712,202.176   L 107.52,201.792   L 107.328,201.312   L 107.136,200.832   L 107.136,200.352   L 107.04,199.872   L 107.04,199.392   L 107.04,198.912   L 106.752,198.72   L 106.56,198.528   L 106.464,198.24   L 106.56,197.952   L 106.848,197.568   L 106.752,197.088   L 106.656,196.608   L 106.656,196.224   L 107.232,195.552   L 107.808,194.784   L 108.288,194.112   L 109.056,193.536   L 109.344,192.96   L 109.632,192.384   L 110.016,191.808   L 110.496,191.232   L 111.072,191.328   L 111.552,191.616   L 111.936,192.096   L 112.416,192.384  z "
     id="path10" />
</svg>
